<?xml version="1.0" standalone="no"?>
<!DOCTYPE svg PUBLIC "-//W3C//DTD SVG 20010904//EN"
 "http://www.w3.org/TR/2001/REC-SVG-20010904/DTD/svg10.dtd">
<svg version="1.0" xmlns="http://www.w3.org/2000/svg"
 width="1263.000000pt" height="1280.000000pt" viewBox="0 0 1263.000000 1280.000000"
 preserveAspectRatio="xMidYMid meet">
<g transform="translate(0.000000,1280.000000) scale(0.100000,-0.100000)"
fill="#000000" stroke="none">
<path d="M5885 11010 c-225 -30 -313 -53 -440 -118 -130 -65 -163 -91 -218
-168 -48 -66 -66 -81 -180 -153 -283 -177 -494 -377 -573 -544 -16 -33 -16
-39 -4 -48 45 -28 252 -78 585 -139 277 -50 265 -47 265 -68 0 -9 14 -26 30
-37 17 -11 33 -28 36 -39 3 -10 29 -43 58 -72 81 -85 96 -109 143 -222 44
-104 45 -110 47 -227 4 -175 -6 -203 -150 -442 -41 -67 -74 -129 -74 -139 0
-9 -14 -36 -30 -61 -44 -64 -110 -187 -110 -204 0 -7 -26 -68 -59 -134 -32
-66 -73 -165 -91 -220 -31 -92 -77 -191 -142 -305 -45 -78 -177 -425 -203
-532 -14 -57 -41 -168 -61 -248 -20 -80 -40 -176 -46 -215 -5 -38 -18 -110
-29 -160 -46 -211 -70 -424 -79 -695 -5 -146 -14 -300 -21 -343 -12 -69 -11
-86 5 -155 14 -60 20 -145 26 -381 5 -167 11 -316 15 -330 3 -14 20 -43 36
-64 34 -42 34 -38 -11 -157 -16 -41 -40 -118 -54 -170 -15 -52 -61 -182 -103
-289 l-77 -195 -201 -131 c-110 -73 -210 -137 -223 -144 -23 -12 -23 -12 -16
36 6 41 14 54 58 93 174 154 320 298 337 332 39 77 21 66 -153 -88 -127 -113
-243 -204 -261 -204 -6 0 16 28 49 63 83 86 201 220 249 283 22 29 75 80 118
113 42 34 77 66 77 72 0 12 2 13 -105 -59 -44 -29 -81 -48 -83 -43 -2 6 19 39
48 73 52 62 85 116 77 124 -3 3 -40 -35 -82 -83 -123 -140 -235 -253 -251
-253 -15 0 -19 26 -5 34 5 4 42 52 82 109 40 56 116 148 168 205 53 57 103
113 111 125 14 21 14 21 -5 8 -11 -8 -32 -26 -48 -40 -25 -23 -29 -24 -43 -9
-15 15 -13 20 32 68 44 47 46 51 21 45 -43 -11 -33 15 23 58 47 36 62 57 41
57 -4 0 -61 -38 -126 -85 -65 -47 -122 -85 -127 -85 -16 0 -8 25 22 70 16 25
30 49 30 54 0 5 26 38 58 73 78 88 96 113 82 113 -6 0 -114 -102 -239 -227
-125 -126 -254 -252 -287 -281 -64 -58 -52 -52 39 17 32 24 60 41 64 38 12
-12 -8 -38 -53 -69 -26 -18 -56 -41 -68 -51 l-21 -18 22 10 c59 29 56 12 -17
-87 -81 -111 -157 -148 -144 -70 8 49 34 118 45 118 5 0 9 10 9 23 0 32 16 49
85 91 33 21 74 52 90 70 46 52 254 294 309 361 27 33 72 84 100 113 51 53 55
69 9 32 -38 -30 -40 -17 -4 36 48 73 26 67 -42 -11 -87 -99 -239 -255 -249
-255 -4 0 -8 4 -8 10 0 14 189 288 248 359 29 34 52 69 52 78 0 15 -2 15 -18
0 -18 -16 -42 -23 -42 -12 0 3 10 19 22 35 44 60 10 36 -110 -76 -110 -103
-142 -127 -142 -108 0 18 65 109 98 137 66 56 230 227 218 227 -3 0 -32 -20
-64 -45 -63 -50 -87 -57 -77 -24 5 14 2 25 -6 30 -11 6 1 23 45 68 l59 60 -34
-8 c-37 -9 -108 -43 -212 -104 -62 -37 -88 -43 -73 -18 3 5 39 27 79 49 174
96 271 152 264 152 -4 0 -56 -22 -114 -50 -96 -45 -133 -58 -133 -46 0 21 50
79 100 115 33 24 60 48 60 53 0 11 -9 6 -88 -50 -35 -24 -66 -41 -69 -38 -3 3
29 42 72 86 43 44 76 82 74 84 -2 3 -33 -18 -68 -45 -35 -27 -68 -49 -73 -49
-6 0 -30 -18 -55 -40 -25 -22 -50 -40 -54 -40 -20 0 -7 32 23 57 61 52 200
188 209 205 7 13 5 15 -13 10 -19 -5 -20 -2 -14 24 7 27 3 25 -56 -29 -89 -81
-100 -92 -126 -126 -33 -44 -45 -40 -37 11 6 32 30 73 96 161 49 65 89 125 89
135 -1 13 -7 10 -26 -13 -14 -16 -32 -42 -42 -57 -9 -16 -23 -28 -32 -28 -9 0
-21 -5 -27 -11 -6 -6 -17 -9 -23 -7 -8 2 13 42 55 103 37 54 60 94 52 87 -8
-7 -21 -10 -28 -7 -10 4 -26 -17 -50 -67 -39 -78 -155 -248 -170 -248 -17 0
-8 24 76 191 47 93 85 172 85 175 0 22 -30 -24 -66 -102 -24 -52 -47 -94 -49
-94 -3 0 -9 10 -14 23 -7 18 -10 12 -20 -38 -19 -95 -26 -110 -49 -113 -13 -2
-22 2 -22 10 0 20 33 120 89 272 29 76 50 141 47 143 -8 9 -33 -50 -80 -194
-44 -132 -62 -163 -80 -135 -8 14 13 199 35 304 22 101 22 157 1 106 -6 -14
-16 -29 -21 -33 -6 -3 -11 -13 -11 -22 0 -9 -8 -25 -17 -36 -10 -10 -27 -46
-39 -80 -30 -88 -41 -83 -48 20 -10 139 -17 183 -28 183 -7 0 -7 -40 -1 -117
12 -172 10 -305 -4 -310 -8 -3 -13 22 -16 84 -5 93 -18 172 -38 236 -18 56
-26 27 -34 -136 -4 -76 -10 -137 -14 -137 -3 0 -26 65 -51 145 -25 80 -48 145
-52 145 -11 0 -10 -12 11 -130 27 -148 37 -255 23 -246 -6 4 -18 29 -26 57
-39 129 -122 286 -142 266 -3 -2 16 -55 40 -118 25 -63 41 -116 35 -117 -15
-6 -48 39 -59 81 -7 25 -19 41 -34 47 -13 5 -34 25 -47 46 -12 21 -24 33 -27
26 -4 -13 21 -62 59 -115 20 -27 27 -47 23 -62 -3 -13 1 -37 10 -53 9 -17 16
-39 16 -49 -1 -15 -5 -13 -23 9 -12 15 -29 37 -38 50 l-17 23 5 -27 c7 -39 -8
-35 -46 13 -18 22 -35 38 -38 35 -3 -3 28 -44 68 -92 94 -109 120 -145 113
-156 -5 -8 -104 40 -104 51 0 3 -16 24 -35 46 -28 33 -36 37 -44 25 -9 -13
-15 -13 -46 4 -52 29 -54 12 -2 -25 44 -31 88 -92 75 -105 -4 -3 -39 6 -77 21
-78 31 -104 28 -48 -5 32 -19 67 -59 67 -76 0 -3 -9 -4 -20 -1 -26 7 -25 1 5
-43 22 -31 65 -139 65 -162 0 -21 -31 -4 -60 32 -17 22 -40 40 -50 40 -9 0
-24 10 -33 23 -8 12 -18 19 -22 16 -9 -9 43 -110 105 -205 27 -42 50 -80 50
-85 0 -33 -49 6 -100 79 -16 23 -25 30 -30 22 -5 -8 -18 -10 -36 -6 -28 6 -27
5 13 -31 25 -22 48 -55 57 -80 23 -66 1 -65 -60 3 -34 38 -53 53 -54 42 0 -13
83 -144 155 -244 23 -32 -10 -22 -100 31 -52 32 -98 55 -101 52 -3 -3 50 -42
118 -86 157 -103 164 -108 157 -115 -8 -9 -178 53 -257 93 -34 17 -62 29 -62
27 0 -2 23 -18 50 -36 38 -25 49 -37 45 -51 -4 -12 20 -48 87 -124 86 -98 137
-169 138 -187 0 -21 -42 -2 -129 56 -110 72 -141 90 -141 79 0 -4 34 -32 75
-61 67 -48 94 -82 65 -82 -6 0 -46 18 -90 40 -44 22 -82 40 -85 40 -17 0 12
-23 63 -50 44 -24 64 -43 90 -85 18 -29 52 -78 75 -107 24 -29 53 -71 65 -93
33 -63 142 -297 142 -307 0 -25 -28 5 -122 129 -88 116 -106 147 -117 196 -10
47 -15 56 -26 47 -11 -9 -20 -1 -42 41 -15 29 -44 69 -63 89 -28 29 -35 32
-38 17 -2 -9 13 -46 32 -81 20 -35 35 -75 34 -88 -1 -13 9 -61 21 -106 13 -45
21 -86 16 -90 -9 -9 -77 67 -122 136 -18 28 -39 52 -45 52 -7 0 -25 12 -40 27
-46 44 -34 4 21 -68 73 -97 92 -142 100 -231 11 -127 10 -127 -120 49 -33 46
-67 83 -75 83 -20 0 -18 -10 12 -54 17 -24 24 -45 20 -59 -7 -28 15 -112 69
-262 23 -66 59 -186 78 -266 20 -84 55 -193 82 -255 85 -201 26 -134 -86 94
-39 83 -73 171 -99 265 -34 125 -62 213 -85 270 -12 28 -25 20 -25 -15 0 -79
104 -399 201 -620 17 -38 28 -72 26 -74 -23 -23 -191 264 -210 358 -10 55 -15
63 -33 60 -16 -2 -29 15 -69 93 -48 92 -79 135 -91 123 -3 -4 8 -38 25 -76 35
-79 37 -92 16 -92 -8 0 -24 22 -36 50 -23 53 -49 84 -49 58 0 -8 11 -47 24
-86 21 -62 23 -72 10 -83 -9 -8 -13 -21 -10 -35 7 -25 -2 -54 -15 -54 -15 0
-37 54 -60 144 -25 100 -48 138 -72 118 -11 -10 -13 -21 -7 -49 8 -35 4 -63
-9 -63 -16 0 -31 26 -32 54 -1 28 -3 26 -16 -16 -8 -27 -18 -48 -23 -48 -20 0
-41 60 -34 98 l7 37 -21 -25 c-26 -30 -36 -20 -47 44 l-7 41 -14 -30 c-7 -16
-13 -38 -14 -48 0 -12 -6 -17 -18 -15 -14 3 -19 20 -27 95 -5 50 -14 95 -19
100 -5 4 -5 -2 -1 -15 9 -29 -5 -312 -15 -312 -4 0 -17 62 -29 138 -27 166
-39 212 -57 232 -8 8 -21 24 -29 35 -14 19 -14 19 -15 -5 0 -14 7 -50 15 -80
28 -106 13 -121 -34 -33 -23 41 -31 70 -32 107 0 41 -2 46 -9 29 -5 -13 -17
-23 -26 -23 -11 0 -14 -5 -9 -18 4 -9 9 -41 12 -70 5 -44 3 -52 -10 -52 -10 0
-19 11 -23 28 -16 74 -56 207 -70 230 -15 27 -15 26 -9 -18 4 -25 9 -60 12
-78 5 -29 3 -33 -13 -30 -14 2 -21 16 -26 53 -13 89 -16 97 -38 85 -11 -6 -20
-17 -20 -25 0 -26 -28 -16 -38 14 -8 23 -15 28 -31 24 -25 -6 -26 -24 -6 -129
16 -82 13 -102 -11 -69 -16 22 -25 53 -47 179 -9 49 -22 94 -28 100 -11 11 -9
-13 7 -98 9 -41 -16 -30 -39 18 -12 26 -23 36 -33 32 -10 -4 -20 5 -29 27 -22
50 -17 11 10 -82 26 -89 31 -126 16 -116 -12 7 -93 128 -115 172 -35 69 -32
29 4 -64 21 -54 41 -111 45 -128 6 -28 5 -28 -19 10 -13 22 -33 49 -44 60 -10
11 -38 62 -62 113 -44 93 -67 121 -47 56 8 -28 8 -37 -2 -44 -23 -13 -22 -80
1 -112 41 -58 7 -38 -66 38 -96 101 -99 80 -3 -27 39 -45 75 -86 78 -93 12
-21 29 -80 25 -84 -12 -12 -48 15 -87 63 -24 30 -47 55 -51 55 -16 0 -1 -56
19 -70 35 -25 173 -161 173 -171 0 -5 -5 -9 -11 -9 -5 0 -7 -4 -4 -10 9 -15
-32 -12 -119 10 -43 11 -80 20 -82 20 -1 0 -4 -9 -6 -20 -3 -20 -3 -20 -38 -2
-19 11 -57 22 -84 25 l-50 5 25 -19 24 -19 -40 -1 c-28 -1 1 -10 93 -28 73
-15 138 -33 144 -39 18 -18 -36 -16 -100 3 -49 15 -72 14 -72 -4 0 -4 17 -12
38 -18 l37 -11 -47 5 c-32 3 -48 2 -48 -6 0 -6 5 -11 11 -11 21 0 303 -51 308
-55 14 -15 -19 -13 -130 5 -68 11 -132 20 -142 20 -25 0 -34 -30 -13 -42 13
-7 14 -13 6 -22 -8 -10 1 -15 42 -20 29 -3 71 -6 93 -6 42 0 65 -13 65 -37 0
-16 -55 -17 -100 -2 -28 10 -34 9 -42 -5 -6 -10 -22 -16 -43 -16 -43 0 -55
-17 -18 -25 15 -4 36 -10 45 -16 10 -5 26 -9 37 -9 11 0 27 -3 36 -6 14 -6 14
-8 -1 -25 -16 -18 -16 -19 24 -19 44 0 54 -12 24 -29 -28 -17 2 -13 94 11 65
17 87 19 96 10 20 -20 -2 -31 -92 -46 -80 -13 -82 -14 -33 -15 28 -1 87 6 130
14 76 15 133 12 133 -5 0 -16 -23 -23 -84 -25 -52 -2 -84 -8 -165 -31 -36 -11
1 -11 69 0 81 12 141 8 147 -11 5 -15 -49 -29 -144 -38 -67 -6 -71 -8 -61 -25
7 -10 32 -24 57 -30 44 -11 45 -12 26 -27 -18 -14 -16 -15 35 -9 159 18 175
18 195 2 19 -15 19 -15 -15 -17 -19 -1 -54 -1 -77 0 -33 2 -44 -2 -53 -18 -8
-16 -20 -21 -50 -21 l-39 0 23 -23 c15 -15 22 -33 21 -54 l-2 -30 94 -5 c138
-8 146 -26 18 -44 -91 -12 -76 -19 73 -37 131 -16 150 -20 172 -43 36 -36 16
-44 -119 -44 -97 0 -112 -2 -102 -14 19 -22 -2 -24 -266 -25 -133 0 -253 -5
-267 -11 -18 -6 -35 -5 -58 4 -18 8 -62 16 -98 17 l-64 4 -118 -270 c-65 -148
-116 -276 -113 -283 2 -6 13 -12 24 -12 11 0 41 -9 67 -20 26 -12 82 -25 123
-30 42 -5 123 -15 181 -24 58 -8 139 -17 180 -21 41 -3 93 -8 115 -11 24 -3
58 1 85 10 25 8 101 20 170 26 69 6 150 15 180 20 30 4 88 13 128 19 39 6 105
22 145 35 122 42 194 46 180 10 -8 -22 15 -17 66 14 54 33 89 44 97 30 3 -5
-2 -18 -12 -29 -29 -32 3 -21 44 15 40 37 92 57 92 36 0 -8 10 -9 30 -5 17 4
30 4 30 2 0 -3 -25 -37 -55 -76 -30 -39 -55 -74 -55 -78 0 -3 30 32 66 78 36
46 68 86 70 88 2 3 29 6 60 7 38 2 57 -1 60 -10 3 -7 -14 -63 -37 -125 -23
-61 -39 -115 -35 -118 10 -10 14 -2 62 128 26 68 52 129 58 135 6 6 35 14 64
17 63 7 65 -1 23 -70 -32 -52 -95 -184 -106 -220 -16 -58 19 -11 91 119 44 78
86 149 94 159 8 9 32 20 53 23 47 9 47 14 2 -184 -35 -156 -43 -223 -26 -204
8 7 33 97 102 364 8 34 12 37 67 48 81 17 110 15 116 -5 2 -10 19 -101 37
-203 30 -176 49 -248 48 -190 0 14 -4 45 -9 70 -13 59 -40 276 -40 318 0 29 3
33 22 30 15 -2 31 -18 46 -48 112 -211 205 -340 228 -317 2 1 -23 39 -55 84
-63 87 -165 277 -159 295 3 9 70 37 90 38 4 0 30 -45 59 -100 50 -95 116 -187
126 -176 3 3 -11 31 -30 63 -66 111 -107 203 -89 203 5 0 46 -66 92 -148 141
-251 164 -288 168 -270 4 19 -18 63 -96 198 -96 166 -104 180 -94 180 5 0 37
-35 70 -77 33 -43 70 -87 83 -98 21 -18 22 -19 16 -2 -4 10 -35 59 -69 108
-34 49 -58 92 -55 96 4 3 63 -47 131 -113 l125 -119 -6 -91 c-5 -77 -3 -96 13
-122 21 -37 36 -40 129 -29 39 5 115 10 170 11 55 2 118 7 140 11 36 6 147 53
215 91 14 7 43 23 65 34 22 11 47 25 56 31 12 9 26 4 68 -26 50 -36 60 -39
157 -48 101 -10 106 -9 172 16 60 24 81 41 193 155 133 134 132 133 237 362
12 25 33 97 47 160 14 63 38 160 54 215 l28 100 54 11 c77 16 81 19 133 80 26
29 53 54 60 54 7 0 23 -11 36 -25 19 -20 33 -25 75 -25 93 0 135 59 119 168
-5 31 -9 63 -9 69 0 7 20 23 44 35 56 28 84 80 86 155 2 65 10 74 136 163 50
36 112 83 138 105 74 64 124 101 168 123 23 12 44 26 48 32 3 5 20 16 38 25
32 15 145 102 202 155 35 32 148 90 176 90 11 0 29 12 42 26 12 14 47 39 78
55 32 15 81 53 111 82 30 30 72 66 95 80 23 14 44 31 48 37 9 15 101 60 123
60 10 0 24 11 30 25 18 38 92 115 112 115 24 0 111 73 130 109 22 43 86 111
104 111 9 0 22 13 30 29 9 17 35 38 62 52 26 12 64 40 84 61 21 21 47 38 59
38 13 0 19 4 16 11 -4 6 2 19 14 30 11 11 28 33 36 49 20 39 52 48 78 22 18
-18 19 -24 8 -51 -12 -29 -66 -60 -109 -62 -9 0 -1 -5 18 -11 19 -5 49 -23 67
-38 70 -61 149 -58 205 8 38 46 43 82 19 138 -27 60 -27 65 10 100 75 71 83
114 39 207 l-22 47 52 47 c29 27 76 63 104 82 28 18 80 61 116 95 88 85 177
159 252 211 35 24 80 56 100 71 31 22 43 25 77 19 33 -5 41 -11 41 -29 0 -12
-33 -89 -73 -171 -106 -217 -217 -459 -217 -474 0 -53 74 75 210 361 50 106
93 194 95 196 10 10 35 -22 35 -45 0 -28 -85 -498 -100 -553 -20 -73 -5 -83
27 -17 28 56 56 184 88 396 14 96 28 178 31 182 11 18 24 8 42 -28 16 -34 21
-38 56 -38 60 0 63 -29 16 -147 -102 -260 -172 -481 -142 -453 13 12 64 152
135 368 28 86 56 156 62 154 5 -2 13 -26 17 -53 9 -62 10 -387 2 -478 -5 -51
-4 -67 5 -62 7 5 11 46 11 121 0 118 9 146 30 94 24 -58 28 -13 9 126 -25 197
-25 250 3 269 13 9 26 12 31 7 5 -5 13 -80 18 -167 19 -341 34 -457 52 -428 2
5 1 54 -4 108 -5 54 -7 101 -5 103 12 12 24 -12 36 -69 24 -124 90 -304 90
-246 0 7 -14 66 -30 132 -35 137 -48 226 -33 226 6 0 16 -13 23 -30 12 -29 30
-41 30 -20 0 31 22 -1 54 -80 37 -88 56 -117 56 -86 0 30 20 16 44 -32 13 -27
32 -54 40 -61 14 -12 16 -10 16 11 0 13 -7 34 -16 46 -8 12 -14 30 -11 40 2
11 11 2 25 -30 21 -46 42 -63 42 -34 0 8 -22 77 -49 153 -30 84 -48 148 -45
163 3 15 -7 55 -26 100 -60 142 -48 151 19 13 46 -95 159 -296 209 -372 39
-59 55 -53 27 10 -19 42 -12 66 10 35 8 -10 33 -54 55 -97 41 -79 58 -102 40
-53 -13 34 -96 199 -126 250 -25 42 -48 139 -38 156 11 18 46 -27 91 -120 37
-75 51 -95 77 -106 17 -7 44 -30 60 -50 35 -46 46 -40 17 9 -41 70 -20 59 84
-45 57 -57 107 -101 111 -97 4 3 -8 23 -25 42 -37 42 -81 110 -81 125 0 19 15
10 70 -41 68 -63 99 -84 107 -75 4 4 -60 74 -143 155 -132 130 -188 200 -172
217 3 2 12 2 20 -1 19 -8 172 -174 228 -249 24 -32 46 -53 48 -47 6 18 22 13
65 -24 40 -35 57 -43 57 -27 0 5 -45 48 -100 97 -55 48 -100 91 -100 95 0 5
18 11 39 15 37 6 47 2 138 -58 54 -36 114 -79 134 -96 20 -17 39 -31 43 -31
15 0 2 21 -54 88 -54 64 -71 92 -54 92 10 0 62 -40 122 -91 57 -51 76 -60 66
-34 -4 9 0 15 10 15 9 0 16 6 16 13 0 19 43 37 61 26 33 -21 30 -6 -5 30 -26
27 -37 45 -32 56 4 12 -4 26 -25 44 -75 64 -103 96 -86 99 26 5 71 -32 146
-121 69 -83 131 -146 131 -134 0 3 -18 27 -40 52 -37 42 -49 65 -35 65 16 0
72 -35 87 -54 l17 -21 -6 23 c-7 27 12 29 41 5 20 -18 20 -17 6 2 -8 11 -45
54 -81 95 -98 111 -114 152 -44 114 19 -10 60 -49 90 -86 31 -37 61 -68 67
-68 6 0 -1 15 -16 33 -15 17 -33 46 -41 64 -8 17 -28 40 -45 50 -32 19 -87 89
-77 99 15 15 53 -15 118 -92 80 -96 140 -156 147 -149 3 3 -8 20 -24 38 -73
78 -117 138 -107 148 18 18 42 -2 87 -70 25 -36 59 -82 76 -101 l30 -35 -21
37 c-29 51 -21 64 21 33 19 -15 44 -31 55 -37 19 -11 19 -10 3 9 -10 11 -18
25 -18 31 0 17 25 15 40 -3 7 -8 21 -15 33 -15 11 0 35 -10 54 -21 46 -29 54
-16 14 25 -19 19 -31 41 -29 52 2 14 -8 25 -38 39 -73 35 -95 67 -55 78 22 5
42 -6 131 -77 49 -38 61 -44 55 -27 -5 18 -2 21 19 21 20 0 26 5 26 23 0 17
-14 32 -55 58 -169 105 -205 130 -205 139 0 14 63 -19 175 -90 50 -31 106 -65
125 -75 l35 -18 -19 22 c-11 12 -35 31 -53 42 -51 32 -32 34 28 3 53 -26 53
-26 38 -3 -9 12 -46 39 -84 58 -68 36 -93 61 -60 61 10 0 71 -31 136 -70 65
-38 122 -70 126 -70 4 0 -8 14 -27 31 l-35 31 35 -6 35 -6 -35 30 c-19 16 -53
35 -75 40 -63 17 -67 19 -62 33 4 13 19 13 152 3 76 -5 74 -4 -25 10 -86 12
-122 23 -202 61 -94 45 -118 63 -81 63 15 0 14 2 -3 14 -16 12 -16 15 -4 20
25 8 151 19 221 20 47 0 65 4 62 12 -2 7 5 15 16 19 29 9 27 29 -1 21 -63 -17
-148 -28 -164 -22 -18 7 -18 9 5 27 13 10 29 19 37 19 8 0 13 5 12 12 -2 8 38
19 119 33 68 11 128 26 135 33 16 16 -5 16 -112 -3 -47 -8 -93 -15 -103 -15
-31 0 -10 17 38 30 32 9 45 18 45 30 0 10 5 20 12 22 6 2 11 19 11 37 0 25 6
35 29 47 25 13 38 34 21 34 -3 0 -53 -25 -111 -56 -58 -31 -111 -53 -119 -50
-9 4 -49 -12 -90 -34 -41 -22 -73 -36 -71 -30 3 9 256 174 281 183 7 2 9 8 4
12 -4 5 -28 -1 -55 -13 -40 -18 -189 -72 -199 -72 -2 0 -3 6 -3 13 0 8 43 45
95 83 94 68 123 99 65 69 -33 -17 -54 -20 -45 -5 10 17 -23 11 -57 -10 -39
-24 -48 -25 -48 -6 0 7 20 30 45 50 25 21 45 42 45 47 0 18 -56 -22 -143 -102
-82 -74 -121 -98 -135 -84 -3 3 32 42 78 86 52 49 80 82 73 85 -7 3 -13 12
-13 20 0 13 -3 13 -22 0 -12 -9 -30 -16 -40 -16 -13 0 -16 6 -11 34 9 55 -13
54 -71 -3 -51 -50 -86 -65 -86 -36 0 8 25 34 55 58 66 50 75 80 15 46 -22 -12
-79 -53 -126 -91 -48 -37 -93 -68 -101 -68 -26 0 -12 25 42 76 47 45 53 54 39
62 -13 8 -14 13 -4 31 17 33 5 37 -17 6 -10 -14 -25 -35 -33 -46 -18 -23 -147
-81 -155 -69 -3 5 31 38 75 75 76 63 102 97 63 80 -10 -5 -33 -10 -51 -13 -24
-3 -60 -29 -135 -97 -56 -51 -118 -109 -136 -129 -36 -37 -51 -44 -51 -25 0
14 134 198 190 262 23 26 61 58 84 70 l41 22 -35 3 c-19 1 -71 -4 -115 -12
-75 -13 -81 -13 -101 5 -11 11 -35 19 -52 19 -37 0 -102 24 -102 38 0 17 29
22 128 22 105 1 228 14 278 30 29 10 31 13 20 35 -10 22 -17 25 -73 25 -61 0
-85 12 -65 32 12 12 60 13 92 3 11 -3 20 -2 20 3 0 6 -26 19 -57 30 -32 10
-57 23 -57 28 1 5 20 16 43 24 37 13 46 12 111 -9 40 -12 74 -21 76 -18 3 3
-10 10 -29 16 -19 7 -43 21 -53 32 -27 30 -4 41 79 37 78 -4 73 7 -14 38 -48
18 -63 39 -34 50 8 4 69 0 135 -6 83 -9 124 -10 131 -3 7 7 -11 13 -58 18
-111 11 -346 54 -357 65 -7 7 64 10 215 10 177 0 229 3 249 15 35 20 41 23 73
29 16 4 25 11 21 17 -5 8 -45 9 -131 4 -150 -9 -161 5 -37 42 72 23 84 24 142
13 67 -13 93 -7 48 10 -20 7 -26 15 -21 29 5 17 -1 18 -81 19 -51 0 -91 5 -97
11 -20 20 8 28 132 34 138 7 251 25 251 40 0 6 -30 8 -88 4 -95 -6 -124 1
-104 26 9 11 30 13 86 9 41 -2 86 -2 100 2 25 6 26 7 10 31 -9 14 -23 25 -30
25 -19 0 -18 26 2 34 9 3 32 6 52 6 33 1 35 2 20 14 -13 9 -14 16 -6 24 18 18
-10 23 -146 25 -76 1 -126 6 -127 12 -1 18 42 23 191 24 155 1 223 8 214 22
-3 5 -41 9 -85 9 -95 0 -105 19 -18 35 43 8 54 14 54 30 0 15 10 22 45 29 73
16 13 19 -115 7 -140 -14 -158 -14 -153 0 4 12 114 55 227 89 36 11 69 24 75
30 13 13 20 14 -156 -14 -266 -43 -319 -43 -138 0 41 10 80 23 85 31 6 7 73
27 150 43 147 32 204 58 106 47 -49 -6 -55 -4 -73 18 -11 14 -24 22 -30 19 -5
-4 -20 -1 -32 5 -18 10 -32 8 -74 -8 -104 -41 -79 -17 63 61 106 58 132 78
104 78 -7 0 -75 -33 -152 -72 -86 -45 -141 -69 -144 -62 -3 9 -15 8 -44 -4
-21 -8 -42 -12 -45 -9 -16 16 12 40 96 82 90 45 118 73 60 60 -43 -9 -39 7 18
74 57 65 107 139 100 146 -3 3 -42 -44 -87 -104 -93 -124 -125 -154 -236 -220
-44 -26 -90 -53 -102 -61 -38 -24 -37 -2 1 42 175 206 206 245 206 256 0 30
-43 -14 -140 -143 -57 -75 -107 -138 -112 -141 -23 -14 -16 10 27 97 41 83 59
106 149 191 55 54 95 98 88 98 -7 0 -49 -36 -94 -80 -64 -64 -87 -80 -107 -78
-24 3 -24 4 17 51 23 27 42 55 42 63 0 8 7 28 15 44 19 36 2 41 -25 8 -26 -32
-33 -18 -15 27 14 32 14 57 1 44 -3 -3 -36 -72 -73 -154 -46 -100 -74 -151
-86 -153 -16 -3 -16 1 3 49 12 29 30 65 41 80 10 15 19 41 19 58 0 16 9 55 21
86 12 31 19 59 16 61 -3 3 -11 -12 -17 -33 -17 -50 -90 -196 -96 -191 -2 3 5
25 16 49 21 46 28 101 10 83 -5 -5 -43 -88 -84 -183 -42 -96 -80 -179 -86
-185 -22 -22 -8 28 38 136 75 173 77 183 54 209 l-20 21 -11 -21 c-15 -28 -41
-27 -41 1 0 50 -27 -18 -60 -149 -12 -48 -33 -73 -61 -73 -25 0 -25 32 1 55
11 10 20 29 20 42 0 13 7 26 15 29 22 9 18 23 -9 33 -20 8 -22 14 -17 47 6 40
12 44 94 80 46 20 48 34 5 35 -144 3 -177 5 -182 10 -10 9 124 85 164 94 49
10 54 15 33 31 -30 23 2 36 75 29 81 -7 74 5 -23 40 -41 15 -75 33 -75 40 0
19 69 33 135 27 67 -5 71 14 4 24 -34 6 -40 10 -35 26 4 19 1 20 -73 13 -104
-9 -202 17 -145 39 8 3 74 13 147 22 140 18 214 40 95 29 -38 -4 -68 -4 -68 0
0 4 10 15 23 26 27 22 16 24 -38 4 -48 -17 -65 -18 -65 -5 0 6 20 19 44 30 25
10 49 28 55 39 7 12 29 25 54 31 65 17 127 41 127 50 0 5 -16 4 -37 -2 -20 -5
-50 -7 -66 -4 -20 4 -40 0 -61 -13 -17 -11 -48 -23 -70 -27 -65 -12 -39 13 74
73 120 62 141 79 91 68 -23 -5 -31 -4 -27 4 5 8 0 8 -17 2 -39 -15 -199 -98
-232 -120 -16 -12 -39 -21 -50 -21 -17 1 -14 6 16 33 48 43 188 165 228 199
54 46 25 49 -43 5 -142 -92 -201 -125 -204 -116 -2 5 21 40 51 77 73 90 127
167 127 181 0 14 -72 -30 -123 -75 -20 -19 -41 -34 -47 -34 -5 0 -33 -30 -61
-66 -33 -41 -55 -62 -61 -56 -16 16 9 51 121 167 146 151 166 174 158 181 -4
4 -52 -37 -107 -91 -55 -54 -103 -96 -107 -92 -3 4 5 37 20 74 26 69 34 104
41 182 4 38 3 42 -9 30 -8 -8 -30 -48 -51 -89 -20 -41 -45 -85 -57 -98 -11
-12 -30 -37 -41 -56 -51 -83 -77 -116 -92 -116 -23 0 -15 31 50 198 51 131 70
201 47 176 -5 -5 -31 -76 -59 -159 -69 -204 -98 -267 -120 -263 -26 6 -18 45
22 112 40 66 46 88 17 62 -31 -28 -33 -4 -6 96 14 51 25 104 25 118 -1 49 -20
-6 -45 -131 -40 -194 -59 -259 -77 -259 -14 0 2 205 23 298 23 101 23 112 4
112 -9 0 -16 10 -16 28 -1 15 -5 -18 -10 -73 -4 -55 -11 -115 -14 -132 -6 -35
-25 -45 -25 -14 0 10 -6 24 -14 30 -11 9 -13 29 -9 87 4 48 2 74 -4 74 -15 0
-21 -44 -29 -205 -5 -96 -11 -144 -20 -153 -8 -7 -14 -20 -14 -28 0 -8 -7 -14
-16 -14 -13 0 -15 13 -14 73 1 39 -4 101 -10 137 -7 36 -14 81 -17 100 -5 25
-8 29 -11 15 -7 -34 -22 -42 -38 -21 -13 18 -14 14 -14 -45 0 -35 9 -118 20
-184 24 -144 24 -155 6 -155 -16 0 -23 16 -36 87 -14 72 -58 234 -65 242 -7 5
-3 -56 11 -201 4 -37 2 -58 -4 -58 -12 0 -16 12 -32 95 -13 65 -39 125 -40 91
0 -10 7 -46 16 -79 17 -65 12 -171 -8 -165 -6 2 -25 40 -42 83 -39 96 -76 169
-82 162 -2 -2 5 -26 17 -53 12 -27 34 -85 50 -129 15 -44 40 -111 54 -149 17
-46 23 -72 16 -79 -7 -7 -14 -1 -21 19 -6 16 -32 83 -56 149 -25 66 -53 129
-63 140 -10 11 -21 27 -24 35 -7 16 1 -120 9 -157 2 -12 0 -25 -6 -28 -5 -3
-10 -1 -10 4 0 22 -18 10 -24 -15 -11 -42 -26 -16 -51 88 l-23 93 4 -125 c2
-69 10 -162 17 -207 14 -85 5 -213 -14 -213 -14 0 -17 12 -34 170 -23 207 -27
229 -36 205 -4 -11 -8 -37 -8 -57 -1 -61 -31 -42 -31 20 0 20 -3 23 -12 14 -7
-7 -15 -66 -19 -154 -4 -79 -13 -205 -19 -280 -12 -127 -21 -170 -34 -157 -12
11 -26 193 -26 334 0 143 -9 199 -24 160 -3 -9 -6 -41 -6 -71 0 -30 -4 -54 -9
-54 -11 0 -21 25 -21 56 0 13 -4 24 -8 24 -4 0 -6 -127 -5 -282 5 -497 8 -533
36 -628 23 -76 25 -87 12 -115 -7 -16 -17 -46 -21 -65 -8 -40 -61 -140 -75
-140 -5 0 -16 15 -26 33 -13 24 -17 53 -15 117 3 171 20 218 48 139 20 -55 16
-12 -7 73 -13 46 -18 89 -15 104 11 42 24 17 45 -84 10 -51 21 -96 25 -99 8
-8 -2 72 -20 157 -7 36 -20 169 -29 295 -27 390 -31 435 -43 447 -9 9 -12 -18
-12 -118 0 -117 -19 -276 -34 -291 -12 -12 -19 8 -56 162 -40 168 -68 228 -56
120 12 -100 11 -108 -1 -112 -7 -3 -15 8 -19 23 -6 22 -9 24 -13 11 -6 -15 -3
-69 15 -254 4 -39 3 -80 0 -90 -15 -38 -30 20 -28 108 1 77 0 87 -17 92 -18 4
-31 44 -31 93 0 13 -5 24 -10 24 -9 0 -5 -283 5 -316 4 -14 -25 -368 -31 -373
-2 -3 -9 0 -15 6 -16 16 -28 144 -30 333 -1 91 -5 179 -8 195 l-7 30 -12 -40
c-7 -22 -12 -86 -12 -143 0 -74 -3 -103 -12 -100 -11 4 -50 127 -62 201 -4 20
-11 37 -16 37 -15 0 -12 -60 6 -137 12 -52 17 -135 19 -358 1 -159 5 -312 9
-340 5 -40 4 -45 -4 -26 -17 40 -59 262 -84 454 -13 99 -29 184 -34 189 -14
14 -32 -51 -32 -112 0 -39 35 -375 56 -527 5 -44 4 -53 -9 -53 -9 0 -18 -12
-22 -30 -4 -16 -10 -32 -15 -35 -10 -6 -21 28 -121 378 -40 141 -76 257 -81
257 -36 0 70 -421 163 -648 47 -115 49 -142 15 -142 -23 0 -30 15 -111 263
-91 272 -106 310 -112 290 -9 -27 155 -545 214 -676 14 -31 23 -60 20 -64 -14
-14 -42 28 -109 161 -38 78 -89 177 -113 221 -23 44 -65 134 -91 200 -58 141
-75 126 -23 -20 43 -125 240 -498 345 -655 73 -109 55 -140 -29 -51 -45 47
-74 96 -162 272 -100 201 -151 287 -162 276 -5 -6 75 -180 159 -346 101 -198
88 -242 -28 -89 -114 151 -244 313 -254 316 -20 7 -8 -18 52 -104 81 -118 167
-231 250 -330 68 -82 80 -104 54 -104 -29 0 -68 47 -337 402 -115 152 -139
180 -139 160 0 -18 171 -266 252 -366 95 -118 101 -130 62 -120 -51 12 -47 8
-242 254 -37 46 -89 107 -115 136 l-48 52 12 48 c6 27 20 65 30 84 72 140 83
377 28 645 -13 60 -58 192 -76 221 -7 11 -22 49 -34 85 -11 35 -42 100 -69
144 -26 44 -66 112 -88 150 -22 39 -68 99 -101 135 -33 36 -61 69 -61 73 0 5
-46 57 -103 115 -108 112 -154 183 -206 313 -62 158 -132 318 -179 409 -27 52
-59 113 -70 135 -44 85 -57 126 -42 135 10 6 9 14 -7 36 -11 16 -30 51 -41 77
-22 49 -77 108 -297 315 -59 55 -107 92 -119 92 -12 0 -84 31 -161 69 -131 65
-150 71 -285 96 -161 29 -455 42 -585 25z m5015 -1575 c-23 -67 -78 -155 -97
-155 -9 0 -10 7 -3 24 14 37 91 189 104 205 20 25 18 -9 -4 -74z m-123 -140
c-39 -92 -63 -112 -52 -44 8 47 25 86 59 134 19 27 21 28 24 9 2 -11 -12 -56
-31 -99z m243 69 c0 -7 -100 -134 -105 -134 -2 0 -10 -3 -19 -6 -34 -13 -14
26 42 85 50 53 82 74 82 55z m-540 -84 c0 -22 -4 -40 -9 -40 -11 0 -21 49 -14
67 10 27 23 12 23 -27z m354 -28 c12 -20 -99 -182 -125 -182 -20 0 -3 36 52
114 53 74 63 84 73 68z m-467 -52 c14 -47 8 -90 -12 -90 -18 0 -25 23 -25 87
0 66 18 68 37 3z m243 18 c0 -16 -3 -19 -11 -11 -6 6 -8 16 -5 22 11 17 16 13
16 -11z m398 0 c-6 -16 -36 -34 -44 -25 -9 9 15 37 33 37 8 0 13 -5 11 -12z
m-418 -63 c0 -8 -4 -15 -10 -15 -5 0 -10 7 -10 15 0 8 5 15 10 15 6 0 10 -7
10 -15z m-500 -30 c0 -19 -4 -35 -10 -35 -5 0 -10 16 -10 35 0 19 5 35 10 35
6 0 10 -16 10 -35z m600 11 c0 -16 -18 -31 -27 -22 -8 8 5 36 17 36 5 0 10 -6
10 -14z m-159 -48 c-9 -20 -10 -18 -10 17 0 31 2 36 9 23 6 -10 7 -25 1 -40z
m519 -7 c0 -9 -90 -51 -109 -51 -22 0 -10 21 22 40 33 20 87 27 87 11z m-835
-11 c3 -5 1 -10 -4 -10 -6 0 -11 5 -11 10 0 6 2 10 4 10 3 0 8 -4 11 -10z
m220 -73 c36 -91 44 -147 21 -147 -38 0 -98 195 -69 224 10 10 19 -3 48 -77z
m445 60 c0 -18 -79 -62 -90 -51 -12 12 -1 28 35 47 37 20 55 21 55 4z m-400
-7 c0 -5 -4 -10 -10 -10 -5 0 -10 5 -10 10 0 6 5 10 10 10 6 0 10 -4 10 -10z
m-295 -41 c8 -34 -1 -51 -15 -29 -12 19 -13 73 -1 65 5 -3 12 -19 16 -36z m51
-26 c-10 -10 -19 5 -10 18 6 11 8 11 12 0 2 -7 1 -15 -2 -18z m639 -72 c10
-16 -38 -41 -78 -41 -32 0 -37 -3 -28 -13 18 -22 -8 -37 -66 -37 -29 0 -53 4
-53 9 0 14 41 41 61 41 9 0 19 6 22 14 9 23 130 46 142 27z m123 -9 c3 -9 -2
-13 -14 -10 -9 1 -19 9 -22 16 -3 9 2 13 14 10 9 -1 19 -9 22 -16z m-1068 6
c0 -2 9 -53 19 -115 17 -98 18 -118 6 -168 -21 -92 -35 -89 -47 13 -9 83 -10
235 -2 256 5 13 24 23 24 14z m290 -38 c0 -16 -4 -30 -9 -30 -12 0 -24 37 -16
50 12 20 25 10 25 -20z m420 10 c-6 -11 -18 -20 -28 -20 -14 1 -13 4 7 20 29
25 34 25 21 0z m-550 0 c0 -5 -2 -10 -4 -10 -3 0 -8 5 -11 10 -3 6 -1 10 4 10
6 0 11 -4 11 -10z m275 -81 c-4 -10 -11 -19 -16 -19 -5 0 -9 -14 -9 -31 0 -20
-4 -29 -12 -26 -16 5 -19 136 -4 155 13 18 50 -51 41 -79z m65 21 c0 -60 -36
-68 -42 -9 -2 22 -2 42 1 44 9 10 41 -17 41 -35z m669 -11 c33 -11 38 -35 8
-33 -9 0 -37 1 -62 2 -48 2 -59 17 -22 32 30 12 39 12 76 -1z m-469 -29 c10
-6 11 -12 5 -18 -18 -16 -114 -46 -122 -38 -12 12 54 66 80 66 12 0 29 -5 37
-10z m308 -26 c32 -9 27 -20 -20 -48 -58 -33 -127 -51 -141 -37 -16 16 17 45
78 70 58 23 54 22 83 15z m142 -14 c0 -5 -14 -10 -31 -10 -17 0 -28 4 -24 10
3 6 17 10 31 10 13 0 24 -4 24 -10z m-877 -45 c9 -20 17 -47 17 -61 0 -13 7
-41 15 -61 19 -44 19 -71 1 -114 -19 -44 -26 -51 -43 -37 -11 9 -12 6 -3 -16
10 -28 -1 -66 -20 -66 -6 0 -10 -12 -10 -27 0 -14 -6 -33 -14 -42 -8 -9 -34
-38 -59 -65 -64 -72 -90 -41 -47 58 22 49 29 53 48 34 10 -10 10 -6 1 20 -8
25 -8 40 1 62 15 36 24 37 45 8 17 -23 17 -22 11 15 -8 46 0 63 22 45 14 -11
15 -10 8 12 -17 62 -16 77 3 123 26 59 26 60 2 52 -26 -8 -33 6 -25 54 8 50
25 52 47 6z m-689 -81 c18 -70 22 -109 19 -179 -5 -101 -9 -123 -23 -109 -12
13 -40 233 -40 323 0 96 13 85 44 -35z m576 12 c0 -34 3 -83 6 -111 6 -61 -8
-90 -31 -61 -16 21 -22 196 -8 245 6 23 7 23 20 6 7 -11 13 -45 13 -79z m-60
3 c0 -39 -4 -68 -9 -65 -12 8 -24 100 -16 126 12 39 25 9 25 -61z m480 71 c0
-15 -31 -60 -41 -60 -12 0 -11 13 1 44 9 25 40 37 40 16z m120 1 c0 -6 -19
-21 -42 -35 -49 -29 -68 -21 -50 19 10 21 18 25 52 25 22 0 40 -4 40 -9z
m-869 -103 c15 -85 16 -131 4 -245 -8 -83 -17 -103 -29 -60 -9 36 -7 377 3
377 5 0 15 -33 22 -72z m534 42 c0 -13 -6 -25 -12 -27 -9 -3 -13 6 -13 27 0
21 4 30 13 28 6 -3 12 -15 12 -28z m625 1 c0 -11 -31 -24 -39 -16 -3 3 1 10 9
15 19 12 30 12 30 1z m-1296 -111 c6 -71 -2 -97 -29 -86 -15 5 -17 17 -13 80
8 123 30 126 42 6z m957 75 c-2 -12 -51 -26 -51 -15 0 11 32 30 43 27 5 -1 8
-7 8 -12z m125 -40 c-19 -14 -36 -12 -36 6 0 5 12 9 28 9 26 -1 26 -1 8 -15z
m-801 -54 c7 -40 -11 -121 -27 -121 -9 0 -11 144 -1 153 14 14 21 6 28 -32z
m640 14 c0 -17 -8 -20 -54 -23 -62 -4 -80 7 -55 32 12 12 30 16 63 14 38 -3
46 -6 46 -23z m-526 -55 c13 -43 1 -85 -22 -77 -22 7 -20 117 2 117 4 0 13
-18 20 -40z m750 15 c-15 -8 -46 -17 -69 -21 -34 -6 -42 -4 -38 7 6 17 40 27
93 28 l40 0 -26 -14z m226 6 c9 -16 -36 -51 -64 -50 -14 0 -38 -3 -53 -7 -22
-5 -28 -3 -28 9 0 20 11 27 69 42 58 17 68 17 76 6z m-531 -21 c14 -14 3 -21
-46 -31 -52 -9 -63 -1 -42 30 13 19 22 22 47 17 17 -4 36 -11 41 -16z m-504
-25 c0 -14 -4 -25 -10 -25 -11 0 -14 33 -3 43 11 11 13 8 13 -18z m750 -30 c0
-19 -140 -55 -217 -55 -61 0 20 48 102 60 85 13 115 12 115 -5z m-313 -11 c5
-14 -74 -57 -82 -44 -3 5 6 21 21 35 28 26 54 30 61 9z m768 -43 c-15 -31 -35
-41 -35 -20 0 7 10 28 22 48 27 44 38 20 13 -28z m-1221 -13 c11 -41 6 -78
-14 -118 -38 -74 -56 -42 -35 61 8 39 15 72 15 75 0 2 6 4 14 4 7 0 16 -10 20
-22z m816 12 c0 -13 -48 -36 -56 -27 -4 4 -1 13 6 22 14 17 50 20 50 5z
m-1172 -34 c3 -20 0 -27 -10 -24 -7 3 -14 17 -16 32 -3 20 0 27 10 24 7 -3 14
-17 16 -32z m447 -36 c-16 -49 -28 -60 -40 -40 -6 10 18 75 37 98 20 23 21 -3
3 -58z m-596 -37 c35 -126 44 -190 31 -245 -15 -62 -36 -59 -32 4 2 28 -2 58
-12 75 -19 37 -34 233 -18 233 6 0 20 -30 31 -67z m946 36 c39 -34 38 -49 -3
-49 -15 0 -44 -3 -65 -6 l-38 -6 7 38 c3 22 9 42 11 47 10 17 55 5 88 -24z
m95 11 c0 -5 -9 -10 -19 -10 -11 0 -23 5 -26 10 -4 6 5 10 19 10 14 0 26 -4
26 -10z m645 -47 c-9 -37 -25 -53 -25 -26 0 29 10 53 22 53 6 0 7 -11 3 -27z
m-1290 -104 c4 -66 4 -123 1 -126 -4 -4 -14 1 -24 10 -13 14 -17 35 -17 100 1
173 30 185 40 16z m1506 84 c-8 -15 -10 -15 -11 -2 0 17 10 32 18 25 2 -3 -1
-13 -7 -23z m-531 -3 c0 -11 -4 -20 -9 -20 -14 0 -23 18 -16 30 10 17 25 11
25 -10z m-1580 -15 c5 -14 17 -85 25 -158 9 -72 19 -148 23 -167 12 -53 -18
-244 -39 -248 -25 -5 -31 33 -38 253 -9 308 -1 399 29 320z m766 -8 c7 -18
-30 -110 -46 -115 -10 -4 -12 6 -7 42 10 71 38 110 53 73z m672 -14 c2 -8 -5
-13 -17 -13 -21 0 -35 13 -24 24 10 10 36 3 41 -11z m72 -24 c0 -24 -23 -21
-28 4 -2 10 3 17 12 17 10 0 16 -9 16 -21z m-511 -15 c-14 -18 -24 -11 -15 11
3 9 11 13 16 10 8 -5 7 -11 -1 -21z m590 13 c8 -10 7 -18 -3 -32 -16 -23 -36
-12 -36 21 0 26 21 32 39 11z m-254 -26 c-9 -16 -25 -3 -18 15 4 10 9 12 15 6
6 -6 7 -15 3 -21z m90 -11 c0 -8 -10 -16 -22 -18 -22 -3 -32 16 -16 32 12 11
38 2 38 -14z m-192 -43 c-3 -5 -10 -4 -15 1 -6 6 -7 16 -3 22 6 9 9 9 16 -1 4
-7 5 -17 2 -22z m1004 16 c-9 -9 -20 -13 -24 -9 -4 4 -1 11 7 16 25 16 35 11
17 -7z m-1257 -2 c0 -5 -6 -14 -14 -20 -16 -13 -32 2 -21 19 8 12 35 13 35 1z
m530 -11 c0 -13 -7 -20 -20 -20 -19 0 -27 20 -13 33 13 14 33 6 33 -13z m290
-1 c0 -11 -4 -18 -10 -14 -5 3 -7 12 -3 20 7 21 13 19 13 -6z m175 -28 c-3
-16 -13 -35 -21 -42 -8 -6 -14 -21 -14 -32 0 -21 -56 -87 -73 -87 -16 0 2 62
28 102 14 21 32 38 41 38 8 0 20 14 26 31 13 37 22 31 13 -10z m-1813 -8 c5
-81 -12 -134 -33 -103 -8 14 -3 104 8 123 10 16 23 5 25 -20z m393 -13 c0 -7
-6 -15 -12 -17 -8 -3 -13 4 -13 17 0 13 5 20 13 18 6 -3 12 -11 12 -18z m935
-49 c-6 -12 -15 -19 -21 -16 -13 8 -11 29 3 43 18 18 32 -2 18 -27z m695 29
c-3 -5 -11 -10 -16 -10 -6 0 -7 5 -4 10 3 6 11 10 16 10 6 0 7 -4 4 -10z
m-1871 -74 c6 -34 5 -54 -4 -71 -10 -18 -10 -31 0 -59 12 -38 7 -72 -9 -62 -5
4 -12 25 -16 47 -4 23 -16 50 -27 61 -14 14 -18 27 -13 49 4 16 13 29 21 29 9
0 14 11 14 31 0 47 24 30 34 -25z m1006 19 c0 -41 -26 -49 -36 -11 -7 29 1 46
22 46 9 0 14 -11 14 -35z m-740 -4 c0 -10 -7 -24 -15 -31 -13 -11 -15 -8 -15
17 0 16 3 33 6 36 11 10 24 -3 24 -22z m1540 9 c0 -5 -9 -14 -19 -20 -25 -13
-38 5 -14 19 23 13 33 14 33 1z m-1280 -16 c0 -38 -52 -84 -95 -84 -24 0 -18
41 12 72 30 31 83 39 83 12z m370 6 c0 -5 -4 -10 -10 -10 -5 0 -10 5 -10 10 0
6 5 10 10 10 6 0 10 -4 10 -10z m227 -24 c-8 -19 -37 -21 -37 -3 0 7 5 18 12
25 15 15 33 -1 25 -22z m77 5 c9 -14 -4 -41 -20 -41 -8 0 -14 8 -14 18 0 29
22 43 34 23z m679 -51 c29 0 38 -3 30 -11 -14 -14 -132 -41 -154 -34 -9 3 -20
1 -24 -5 -3 -5 -17 -10 -31 -10 -14 0 -22 -4 -19 -10 3 -5 15 -10 26 -10 10 0
19 -4 19 -10 0 -19 -173 -49 -184 -31 -9 15 34 51 61 51 14 0 23 6 23 15 0 10
10 15 30 15 23 0 30 5 30 19 0 25 21 31 94 25 32 -2 77 -4 99 -4z m-1803 -30
c8 -15 7 -27 -5 -50 -21 -40 -38 -29 -29 18 10 58 17 64 34 32z m1100 -10 c0
-11 -7 -20 -15 -20 -15 0 -21 21 -8 33 12 13 23 7 23 -13z m131 -29 c10 -35 9
-42 -16 -80 -45 -68 -54 -54 -34 55 6 32 13 62 16 67 8 14 22 -3 34 -42z
m-1722 -8 c8 -27 7 -41 -1 -51 -10 -12 -13 -11 -19 5 -11 27 -10 83 1 83 5 0
14 -17 19 -37z m241 28 c0 -6 -4 -13 -10 -16 -5 -3 -10 1 -10 9 0 9 5 16 10
16 6 0 10 -4 10 -9z m613 2 c8 -7 -21 -43 -35 -43 -12 0 -10 24 4 38 14 14 22
15 31 5z m1017 -24 c0 -14 -56 -69 -69 -69 -18 0 -13 13 20 53 28 34 49 41 49
16z m-1280 -19 c0 -11 -4 -20 -10 -20 -5 0 -10 9 -10 20 0 11 5 20 10 20 6 0
10 -9 10 -20z m180 -9 c0 -46 -17 -83 -38 -79 -12 3 -16 12 -15 33 5 65 53
106 53 46z m702 -13 c-15 -15 -26 -4 -18 18 5 13 9 15 18 6 9 -9 9 -15 0 -24z
m-389 16 c9 -10 -4 -34 -19 -34 -8 0 -14 6 -14 13 0 22 19 35 33 21z m287 -16
c0 -27 -40 -78 -61 -78 -19 0 -21 4 -15 32 3 17 11 37 17 45 14 17 59 17 59 1z
m-1040 -18 c0 -5 -4 -10 -10 -10 -5 0 -10 5 -10 10 0 6 5 10 10 10 6 0 10 -4
10 -10z m860 -31 c0 -25 -27 -79 -40 -79 -16 0 -11 72 6 91 19 22 34 16 34
-12z m771 -4 c16 -9 27 -20 24 -25 -6 -9 -68 -29 -137 -44 -43 -10 -35 18 14
54 47 34 58 36 99 15z m-1990 -77 c15 -85 15 -146 2 -159 -25 -25 -37 40 -34
194 1 61 18 42 32 -35z m357 -29 c15 -96 11 -164 -11 -186 -13 -14 -16 -13
-26 5 -6 11 -17 45 -25 75 -13 48 -13 64 0 118 8 34 17 66 20 71 15 24 29 -5
42 -83z m747 81 c8 -13 -4 -50 -16 -50 -5 0 -9 14 -9 30 0 30 13 40 25 20z
m439 -6 c11 -28 6 -47 -16 -71 -30 -32 -38 -29 -38 16 0 52 8 71 30 71 10 0
21 -7 24 -16z m116 -29 c0 -14 -7 -28 -15 -32 -22 -8 -28 2 -21 32 8 33 36 33
36 0z m460 9 c0 -24 -63 -44 -137 -44 -79 0 -75 10 12 39 77 24 125 27 125 5z
m-1886 -26 c12 -45 7 -54 -15 -31 -13 12 -19 28 -16 37 9 23 24 20 31 -6z
m1186 -49 c0 -60 0 -60 -36 -75 -55 -23 -60 -7 -25 70 39 87 61 89 61 5z
m-740 22 c0 -31 -14 -49 -25 -32 -8 13 5 61 16 61 5 0 9 -13 9 -29z m-581 -54
c16 -44 18 -62 9 -76 -8 -13 -6 -31 6 -73 19 -66 19 -68 6 -68 -6 0 -24 21
-40 47 -28 43 -30 54 -30 138 0 127 14 136 49 32z m668 48 c-4 -8 -14 -15 -23
-15 -16 0 -16 2 1 20 20 22 31 20 22 -5z m-267 -2 c0 -23 -17 -49 -26 -41 -9
10 4 58 16 58 6 0 10 -8 10 -17z m1870 -3 c0 -5 -12 -10 -27 -10 -22 0 -25 2
-13 10 20 13 40 13 40 0z m-790 -24 c0 -17 -9 -27 -30 -36 -41 -17 -47 -7 -19
29 29 36 49 39 49 7z m225 5 c0 -8 -4 -16 -10 -18 -16 -5 -38 14 -30 26 9 16
40 9 40 -8z m375 14 c0 -3 -11 -10 -25 -15 -27 -10 -58 -3 -49 11 5 9 74 13
74 4z m-279 -15 c5 0 9 -7 9 -15 0 -10 -10 -15 -30 -15 -18 0 -30 5 -30 13 0
19 12 29 28 22 7 -3 18 -5 23 -5z m639 -11 c0 -5 -16 -9 -35 -9 -34 0 -48 14
-23 22 18 6 58 -3 58 -13z m-1222 -11 c-4 -27 -28 -36 -28 -10 0 20 8 32 22
32 5 0 8 -10 6 -22z m-1948 -152 c66 -88 120 -163 120 -168 0 -21 -39 15 -140
128 -96 108 -130 138 -130 119 0 -12 146 -183 256 -300 67 -71 123 -134 123
-139 1 -5 -18 -9 -41 -11 -50 -2 -47 -5 -246 183 l-134 125 4 41 c9 82 42 190
58 184 5 -2 63 -75 130 -162z m2390 145 c0 -6 -5 -13 -10 -16 -15 -9 -43 3
-35 15 8 13 45 13 45 1z m275 -1 c3 -6 -1 -13 -10 -16 -19 -8 -30 0 -20 15 8
14 22 14 30 1z m-1825 -40 c0 -5 -4 -10 -10 -10 -5 0 -10 5 -10 10 0 6 5 10
10 10 6 0 10 -4 10 -10z m620 -30 c0 -5 -4 -10 -10 -10 -5 0 -10 5 -10 10 0 6
5 10 10 10 6 0 10 -4 10 -10z m830 -5 c0 -8 -4 -15 -9 -15 -13 0 -22 16 -14
24 11 11 23 6 23 -9z m314 -76 c11 -10 -52 -39 -84 -39 -23 0 -27 29 -8 48 13
13 75 7 92 -9z m194 -21 c-6 -16 -62 -30 -106 -26 l-37 4 35 17 c42 19 114 23
108 5z m-1438 -47 c0 -18 -18 -41 -32 -41 -11 0 -10 28 3 51 11 22 29 17 29
-10z m-170 -30 c15 -29 12 -68 -6 -75 -9 -3 -19 -4 -24 -1 -11 7 -22 73 -15
85 10 16 34 11 45 -9z m-1207 -162 c164 -158 208 -215 131 -170 -62 37 -321
239 -328 256 -8 22 -8 60 1 68 16 16 38 -1 196 -154z m747 110 c0 -5 -4 -9
-10 -9 -5 0 -10 7 -10 16 0 8 5 12 10 9 6 -3 10 -10 10 -16z m50 -45 c0 -8 -4
-12 -10 -9 -5 3 -10 10 -10 16 0 5 5 9 10 9 6 0 10 -7 10 -16z m-889 -104 c63
-44 156 -111 206 -148 51 -37 132 -90 180 -119 114 -68 130 -79 120 -89 -9
-10 -109 24 -217 73 -103 47 -438 235 -444 250 -3 6 0 29 5 50 15 57 18 63 27
63 5 0 60 -36 123 -80z m470 -37 c30 -27 90 -77 133 -113 94 -77 83 -89 -31
-31 -73 37 -120 76 -171 145 -48 64 -5 63 69 -1z m649 -23 c9 -16 8 -22 -5
-26 -18 -7 -45 12 -45 32 0 21 38 17 50 -6z m-1233 -51 c21 -11 45 -30 54 -41
8 -10 98 -74 199 -141 187 -124 223 -156 159 -143 -19 4 -63 10 -98 13 -47 5
-97 21 -185 60 -66 29 -121 53 -123 53 -3 0 -1 -10 2 -21 7 -20 5 -21 -26 -15
-18 3 -51 11 -72 17 -39 10 -39 11 -33 51 6 38 24 85 45 118 5 8 12 27 16 43
7 32 13 33 62 6z m464 -5 c7 -8 9 -17 6 -21 -8 -7 -57 24 -57 36 0 13 37 2 51
-15z m2193 -44 c12 -12 -2 -30 -24 -30 -30 0 -70 22 -70 38 0 12 9 13 43 8 23
-4 46 -11 51 -16z m-99 -50 c0 -22 -29 -18 -33 3 -3 14 1 18 15 15 10 -2 18
-10 18 -18z m-1938 -30 c33 -19 57 -53 46 -63 -12 -13 -113 53 -113 75 0 14
34 9 67 -12z m2010 -16 c-3 -3 -12 -4 -19 -1 -8 3 -5 6 6 6 11 1 17 -2 13 -5z
m-202 -14 c-3 -5 -13 -10 -21 -10 -8 0 -14 5 -14 10 0 6 9 10 21 10 11 0 17
-4 14 -10z m-1603 -34 c68 -21 88 -31 94 -48 4 -15 1 -25 -11 -34 -25 -19
-140 24 -178 66 -27 30 -29 53 -4 45 7 -2 51 -15 99 -29z m-342 -40 c69 -30
162 -64 206 -76 154 -42 154 -75 -1 -57 l-101 13 -116 74 c-102 65 -144 100
-121 100 3 0 63 -24 133 -54z m-430 -56 c248 -82 260 -86 375 -134 61 -25 115
-47 120 -50 7 -2 7 -7 0 -14 -11 -12 -192 6 -387 38 -169 28 -248 35 -248 22
0 -27 271 -75 565 -100 44 -4 80 -11 79 -17 0 -5 -23 -29 -51 -51 -39 -32 -63
-43 -100 -48 -91 -12 -328 -26 -440 -26 -104 0 -145 -9 -107 -24 37 -14 341
-1 478 20 30 5 37 3 34 -7 -3 -8 -64 -31 -136 -53 -139 -41 -172 -63 -77 -52
35 4 55 2 55 -4 0 -17 -84 -65 -162 -94 -40 -14 -86 -37 -103 -51 -28 -23 -29
-24 -8 -25 12 0 111 36 220 80 108 43 199 77 201 75 14 -13 -15 -34 -89 -64
-101 -41 -121 -56 -61 -47 31 5 42 3 42 -7 0 -14 -65 -71 -125 -109 -22 -14
-46 -32 -53 -41 -7 -8 -42 -34 -77 -57 l-63 -41 -51 22 c-52 22 -54 22 -174 3
-31 -5 -43 -2 -62 16 -24 22 -26 22 -127 10 -216 -26 -232 -25 -188 13 11 9
20 24 20 32 0 22 59 124 95 166 17 19 45 62 61 94 16 32 51 81 77 109 28 29
64 85 86 131 21 44 49 94 63 110 23 27 92 163 112 219 7 22 -1 24 206 -44z
m1630 -19 c0 -12 -20 -25 -27 -18 -7 7 6 27 18 27 5 0 9 -4 9 -9z m980 -32 c0
-19 -115 -139 -134 -139 -21 0 -18 19 13 93 20 46 31 53 94 56 15 0 27 -4 27
-10z m-134 -20 c7 -11 -53 -68 -72 -69 -15 0 -25 26 -17 46 10 28 75 45 89 23z
m-112 -27 c2 -4 1 -14 -3 -21 -12 -18 -55 -10 -59 12 -3 13 3 17 27 17 16 0
32 -4 35 -8z m-342 -34 c-6 -6 -16 -7 -22 -3 -9 6 -9 9 1 16 17 10 34 0 21
-13z m-1433 -9 c29 -10 39 -27 25 -42 -8 -8 -84 21 -104 39 -12 12 -10 14 16
14 17 0 45 -5 63 -11z m1716 -9 c3 -6 -1 -13 -10 -16 -19 -8 -30 0 -20 15 8
14 22 14 30 1z m755 -79 c0 -12 -29 -41 -41 -41 -14 0 -11 11 8 32 17 19 33
24 33 9z m-761 -27 c-6 -8 -15 -14 -20 -14 -14 0 -11 28 4 33 20 7 29 -4 16
-19z m-1728 -11 c-17 -32 -59 -65 -78 -61 -15 4 -12 10 21 41 43 40 74 50 57
20z m1869 -2 c0 -12 -20 -25 -27 -18 -7 7 6 27 18 27 5 0 9 -4 9 -9z m-630
-16 c0 -8 -4 -15 -10 -15 -5 0 -10 7 -10 15 0 8 5 15 10 15 6 0 10 -7 10 -15z
m58 -7 c-6 -18 -28 -21 -28 -4 0 9 7 16 16 16 9 0 14 -5 12 -12z m846 -9 c-10
-12 -33 -28 -51 -35 -38 -17 -43 -17 -43 -4 0 14 72 60 94 60 19 0 19 0 0 -21z
m-937 -26 c5 -15 -36 -28 -49 -15 -6 6 -7 15 -3 22 9 14 47 9 52 -7z m1198
-23 c-3 -5 -13 -10 -21 -10 -8 0 -12 5 -9 10 3 6 13 10 21 10 8 0 12 -4 9 -10z
m-884 -33 c-13 -13 -26 -3 -16 12 3 6 11 8 17 5 6 -4 6 -10 -1 -17z m-164 -25
c-10 -9 -23 -12 -34 -8 -16 7 -16 9 7 21 30 16 48 8 27 -13z m347 9 c8 -12
-13 -27 -46 -35 -21 -5 -28 -3 -28 8 0 27 61 49 74 27z m346 -7 c0 -3 -13 -23
-30 -44 -22 -28 -49 -45 -108 -69 -118 -47 -140 -40 -79 24 42 44 217 116 217
89z m230 -44 c0 -12 -40 -34 -47 -26 -9 8 17 36 33 36 8 0 14 -4 14 -10z
m-2515 -15 c-42 -20 -61 -20 -45 0 7 8 27 15 44 14 l31 -1 -30 -13z m1625 -19
c0 -2 -7 -6 -15 -10 -8 -3 -15 -1 -15 4 0 6 7 10 15 10 8 0 15 -2 15 -4z m210
-15 c0 -6 -10 -17 -22 -25 -30 -21 -52 -2 -24 20 23 16 46 19 46 5z m90 -16
c0 -15 -46 -32 -57 -21 -10 9 18 36 38 36 11 0 19 -7 19 -15z m598 -22 c-3
-18 -71 -56 -124 -69 -27 -7 -28 -6 -14 11 48 58 146 99 138 58z m272 -21 c0
-15 -118 -122 -134 -122 -8 0 -18 5 -21 10 -5 8 -11 7 -21 -1 -7 -6 -21 -8
-30 -5 -9 4 -22 1 -30 -5 -16 -13 -56 -8 -61 7 -4 13 99 84 122 84 17 0 20
-16 5 -25 -5 -3 -10 -11 -10 -18 0 -8 3 -8 12 1 7 7 20 12 30 12 12 0 18 6 16
16 -2 11 4 18 17 19 11 1 34 9 50 18 33 18 55 21 55 9z m-456 -11 c3 -4 -1
-17 -9 -27 -11 -15 -16 -16 -26 -7 -10 10 -9 15 1 28 14 17 26 19 34 6z m-498
-22 c8 -14 -45 -69 -67 -69 -34 0 -31 60 3 73 23 9 57 7 64 -4z m78 3 c2 -4
-2 -22 -9 -40 -12 -27 -19 -32 -50 -32 -19 0 -35 4 -35 9 0 10 70 70 82 71 4
0 9 -3 12 -8z m151 -2 c-3 -5 -13 -10 -21 -10 -8 0 -14 5 -14 10 0 6 9 10 21
10 11 0 17 -4 14 -10z m410 -20 c3 -5 -1 -23 -10 -40 -15 -29 -19 -31 -66 -28
-27 2 -50 8 -52 13 -2 9 96 65 114 65 4 0 11 -4 14 -10z m-340 -40 c0 -10 -12
-16 -34 -18 -39 -4 -64 13 -41 29 23 14 75 7 75 -11z m93 3 c-4 -21 -45 -30
-62 -13 -14 14 8 30 42 30 17 0 23 -5 20 -17z m62 8 c0 -12 -29 -35 -36 -28
-11 10 5 37 21 37 8 0 15 -4 15 -9z m488 -43 c-5 -16 -48 -24 -48 -10 0 11 17
20 38 21 8 1 12 -5 10 -11z m77 -8 c-3 -5 -13 -10 -21 -10 -8 0 -14 5 -14 10
0 6 9 10 21 10 11 0 17 -4 14 -10z m85 -30 c0 -5 -9 -10 -21 -10 -11 0 -17 5
-14 10 3 6 13 10 21 10 8 0 14 -4 14 -10z m-1150 -36 c0 -8 -5 -12 -10 -9 -6
4 -8 11 -5 16 9 14 15 11 15 -7z m140 -7 c57 -19 71 -29 117 -87 47 -59 64
-90 47 -90 -3 0 -43 22 -88 48 -44 27 -102 61 -128 76 -47 26 -74 57 -61 70
11 11 47 6 113 -17z m525 11 c29 -13 28 -35 -1 -30 -35 5 -74 24 -68 33 7 12
38 11 69 -3z m-308 -13 c3 -9 3 -19 -1 -22 -9 -9 -69 11 -74 25 -6 19 67 16
75 -3z m91 -22 c4 -26 -1 -28 -29 -13 -27 15 -25 42 4 38 14 -2 23 -11 25 -25z
m474 -25 c33 -22 57 -42 54 -45 -3 -3 -13 0 -22 8 -9 7 -30 12 -46 11 -36 -3
-118 42 -118 64 0 25 66 6 132 -38z m-957 32 c4 -6 15 -8 26 -5 31 10 106 -81
85 -103 -4 -3 -26 13 -49 36 -24 23 -50 42 -58 42 -16 0 -39 19 -39 32 0 12
28 10 35 -2z m579 -15 c25 -11 40 -26 51 -51 23 -57 8 -59 -48 -7 -82 75 -82
91 -3 58z m-615 -67 c53 -95 46 -109 -28 -60 -68 46 -103 115 -63 125 44 12
52 6 91 -65z m448 28 c6 -6 15 -23 18 -38 10 -38 -17 -37 -56 1 -38 39 -39 64
-1 55 15 -4 32 -12 39 -18z m-7127 -111 c-13 -58 -29 -113 -37 -123 -27 -33
-10 115 20 182 15 33 30 56 34 53 3 -4 -4 -54 -17 -112z m6991 17 c81 -56 120
-90 136 -118 43 -74 28 -72 -74 8 -90 71 -193 167 -193 180 0 17 19 6 131 -70z
m-7115 -33 c8 -88 -6 -135 -25 -86 -19 48 -10 190 10 170 5 -5 12 -43 15 -84z
m8024 70 c0 -14 -16 -11 -29 5 -10 12 -8 13 8 9 12 -3 21 -9 21 -14z m-1072
-45 c-10 -10 -28 6 -28 24 0 15 1 15 17 -1 9 -9 14 -19 11 -23z m503 -37 c25
-23 24 -37 -2 -37 -22 0 -79 56 -79 78 0 15 46 -8 81 -41z m-628 -21 c64 -38
86 -61 87 -89 0 -18 -1 -18 -31 1 -44 28 -149 121 -149 133 0 11 7 8 93 -45z
m912 44 c3 -5 2 -10 -4 -10 -5 0 -13 5 -16 10 -3 6 -2 10 4 10 5 0 13 -4 16
-10z m-435 -15 c7 -9 10 -18 7 -22 -8 -7 -37 15 -37 28 0 14 16 11 30 -6z
m-1156 -27 c8 -33 7 -68 -2 -68 -11 0 -32 46 -32 70 0 27 26 25 34 -2z m-6229
-8 c7 -23 -2 -43 -16 -35 -12 8 -12 55 0 55 5 0 12 -9 16 -20z m232 -34 c-5
-55 -40 -136 -57 -136 -14 0 -13 5 11 90 30 110 55 135 46 46z m7260 12 c24
-22 31 -48 13 -48 -14 0 -60 46 -60 60 0 17 22 11 47 -12z m474 12 c10 -6 19
-15 19 -20 0 -17 -26 -11 -45 10 -20 22 -7 27 26 10z m-1171 -20 c0 -5 -2 -10
-4 -10 -3 0 -8 5 -11 10 -3 6 -1 10 4 10 6 0 11 -4 11 -10z m866 -4 c10 -8 16
-18 12 -22 -11 -10 -60 14 -53 26 8 14 18 13 41 -4z m-513 -17 c36 -24 72 -67
63 -76 -15 -15 -116 57 -116 83 0 20 15 18 53 -7z m-7245 -31 c26 -42 38 -88
23 -88 -11 0 -61 90 -61 110 0 20 19 9 38 -22z m4283 -6 c14 -15 43 -67 63
-115 l38 -88 -58 -67 c-79 -91 -89 -101 -155 -147 -32 -22 -125 -95 -207 -162
-83 -67 -164 -129 -181 -137 -17 -9 -31 -20 -31 -25 0 -8 -101 -77 -193 -131
-20 -12 -41 -30 -46 -39 -5 -9 -83 -64 -173 -121 -90 -57 -172 -111 -183 -121
-11 -9 -39 -26 -62 -38 -23 -11 -80 -49 -125 -83 -46 -35 -95 -71 -109 -80
-14 -9 -39 -29 -56 -45 -66 -62 -228 -187 -274 -212 -19 -11 -55 -36 -78 -55
-24 -20 -47 -36 -52 -36 -5 0 -14 -10 -20 -23 -6 -13 -20 -29 -31 -36 -17 -10
-23 -10 -39 5 -10 9 -19 24 -19 34 0 9 32 108 70 220 60 176 75 209 104 235
18 17 39 42 47 57 8 14 36 45 62 69 48 42 86 55 182 63 17 2 62 24 100 50 50
33 76 45 92 41 16 -4 27 1 39 19 8 14 38 36 66 50 30 15 84 60 139 117 59 61
93 89 104 85 16 -6 76 40 172 133 31 29 68 58 83 65 14 6 82 68 150 139 69 70
129 126 135 124 5 -2 31 39 57 92 26 53 61 112 78 131 28 31 36 35 117 46 143
19 164 17 194 -14z m3269 -35 c35 -40 35 -53 1 -42 -24 7 -73 74 -65 87 7 12
26 -1 64 -45z m621 34 c13 -11 22 -21 19 -24 -7 -7 -80 24 -80 34 0 16 37 10
61 -10z m-7944 -78 c-3 -49 -8 -96 -12 -105 -15 -38 -25 -14 -25 61 0 83 11
131 31 131 9 0 10 -25 6 -87z m6998 8 c59 -65 61 -91 4 -50 -35 25 -89 95 -89
116 0 21 19 6 85 -66z m-337 50 c3 -8 -1 -12 -9 -9 -7 2 -15 10 -17 17 -3 8 1
12 9 9 7 -2 15 -10 17 -17z m-502 -38 c23 -53 31 -108 14 -98 -12 8 -60 107
-60 125 0 25 33 6 46 -27z m432 -12 c3 -16 -1 -22 -10 -19 -7 3 -15 15 -16 27
-3 16 1 22 10 19 7 -3 15 -15 16 -27z m-200 1 c2 -7 -3 -12 -12 -12 -9 0 -16
7 -16 16 0 17 22 14 28 -4z m377 -32 c21 -22 36 -42 34 -45 -8 -7 -77 43 -89
65 -19 35 13 23 55 -20z m-430 10 c3 -5 1 -10 -4 -10 -6 0 -11 5 -11 10 0 6 2
10 4 10 3 0 8 -4 11 -10z m558 -25 c55 -25 81 -44 96 -69 32 -50 27 -61 -16
-35 -63 37 -173 120 -173 130 0 15 13 11 93 -26z m-7017 -22 c14 -32 12 -53
-5 -53 -12 0 -31 47 -31 76 0 33 18 22 36 -23z m7290 8 c53 -39 119 -109 111
-117 -8 -9 -66 32 -137 96 -44 40 -51 49 -34 50 12 0 39 -13 60 -29z m-7471
-21 c-8 -13 -35 0 -35 16 0 12 4 12 20 4 11 -6 18 -15 15 -20z m-142 9 c21 -9
47 -46 47 -64 0 -13 -26 -2 -61 26 -55 44 -47 66 14 38z m7081 -50 c31 -33 56
-69 56 -80 0 -10 -2 -19 -5 -19 -7 0 -125 143 -125 152 0 19 22 4 74 -53z
m804 22 c3 -8 -1 -12 -9 -9 -7 2 -15 10 -17 17 -3 8 1 12 9 9 7 -2 15 -10 17
-17z m-7400 -3 c-2 -6 -10 -14 -16 -16 -7 -2 -10 2 -6 12 7 18 28 22 22 4z
m242 -11 c0 -17 -38 -53 -46 -44 -7 6 27 56 39 57 4 0 7 -6 7 -13z m-735 -45
c-6 -7 -35 18 -35 31 0 5 9 2 20 -8 11 -10 18 -20 15 -23z m567 6 c-7 -7 -12
-8 -12 -2 0 14 12 26 19 19 2 -3 -1 -11 -7 -17z m-304 -30 c18 -23 32 -51 32
-62 0 -12 7 -30 15 -40 17 -23 20 -56 5 -56 -6 0 -27 15 -48 34 -31 30 -35 38
-26 53 9 15 7 24 -12 46 -26 30 -32 67 -11 67 7 0 27 -19 45 -42z m4932 -24
c12 -36 7 -55 -10 -38 -5 5 -13 24 -16 42 -9 44 11 41 26 -4z m-5103 -16 c39
-43 67 -116 53 -138 -10 -17 -26 -6 -54 39 -53 83 -52 157 1 99z m483 -3 c-7
-9 -15 -13 -18 -10 -3 2 1 11 8 20 7 9 15 13 18 10 3 -2 -1 -11 -8 -20z m210
-17 c0 -16 -71 -88 -87 -88 -30 0 -9 45 36 75 40 28 51 31 51 13z m-740 -79
c0 -5 -4 -9 -10 -9 -5 0 -10 7 -10 16 0 8 5 12 10 9 6 -3 10 -10 10 -16z m330
-5 c0 -8 -4 -12 -10 -9 -5 3 -10 10 -10 16 0 5 5 9 10 9 6 0 10 -7 10 -16z
m270 -4 c0 -43 -146 -138 -172 -112 -17 17 3 35 86 82 76 42 86 46 86 30z
m-312 -70 c11 -11 24 -36 28 -55 12 -66 -14 -59 -51 14 -31 61 -20 81 23 41z
m-29 -63 c18 -20 20 -28 12 -50 -6 -15 -15 -27 -20 -27 -9 0 -41 71 -41 90 0
18 26 10 49 -13z m4821 4 c14 -28 -13 -53 -54 -49 -39 4 -40 23 -1 47 38 25
42 25 55 2z m-4210 -9 c0 -5 -9 -17 -20 -27 -22 -20 -26 -14 -10 16 11 19 30
26 30 11z m-762 -38 c-10 -10 -28 6 -28 24 0 15 1 15 17 -1 9 -9 14 -19 11
-23z m362 26 c0 -15 -33 -50 -47 -50 -16 0 -17 32 -1 48 14 14 48 16 48 2z
m200 0 c0 -5 -5 -10 -11 -10 -5 0 -7 5 -4 10 3 6 8 10 11 10 2 0 4 -4 4 -10z
m-610 -96 c0 -15 -2 -15 -21 2 -21 19 -49 66 -49 81 1 16 70 -67 70 -83z m480
71 c0 -8 -9 -20 -20 -27 -11 -7 -20 -19 -20 -27 0 -16 -38 -61 -52 -61 -13 0
-9 27 6 39 8 7 12 20 9 31 -4 14 4 25 28 39 40 25 49 26 49 6z m180 -10 c-12
-13 -27 -22 -33 -18 -6 4 -1 14 12 25 34 26 48 22 21 -7z m-400 -23 c0 -10 -7
-27 -15 -38 -13 -18 -14 -17 -15 19 0 26 4 37 15 37 8 0 15 -8 15 -18z m-100
-29 c0 -13 -3 -13 -15 -3 -8 7 -15 19 -15 27 0 13 3 13 15 3 8 -7 15 -19 15
-27z m410 -8 c0 -16 -27 -32 -37 -21 -7 7 16 36 28 36 5 0 9 -7 9 -15z m-670
-61 c0 -8 -4 -14 -8 -14 -10 0 -32 45 -32 63 1 17 40 -32 40 -49z m91 9 c23
-27 50 -61 60 -78 20 -32 25 -65 10 -65 -14 0 -131 153 -131 172 0 29 16 21
61 -29z m160 6 c37 -26 55 -57 41 -71 -7 -7 -22 -2 -45 16 -37 28 -51 51 -41
67 8 13 12 12 45 -12z m229 -74 c0 -16 -27 -32 -37 -21 -7 7 16 36 28 36 5 0
9 -7 9 -15z m120 -11 c0 -13 -42 -74 -50 -74 -5 0 -13 8 -19 18 -8 15 -11 14
-20 -11 -6 -15 -14 -39 -17 -53 -6 -22 -19 -36 -70 -72 -16 -11 -16 -12 -2 -8
27 8 31 -11 8 -34 -25 -25 -25 -29 2 -22 19 5 21 2 15 -27 -4 -18 -17 -41 -29
-51 -13 -11 -17 -19 -10 -20 17 0 15 -32 -4 -79 -16 -40 -38 -58 -49 -41 -4 6
-8 44 -10 85 -2 54 1 77 11 86 8 6 11 21 8 39 -5 21 -1 31 17 44 13 9 18 16
11 16 -16 0 -15 22 4 69 11 27 31 49 66 72 29 19 63 42 77 51 26 18 61 24 61
12z m-316 -20 c18 -17 21 -50 6 -59 -11 -7 -59 43 -60 63 0 17 36 15 54 -4z
m563 -67 c-27 -45 -158 -177 -176 -177 -17 0 -13 21 12 65 25 44 179 183 185
166 2 -6 -7 -30 -21 -54z m-1023 12 c25 -12 51 -59 44 -80 -2 -6 -22 8 -46 32
-55 58 -55 74 2 48z m311 -23 c36 -29 28 -44 -15 -26 -18 8 -30 20 -30 31 0
25 9 24 45 -5z m525 19 c0 -13 -114 -157 -135 -171 -24 -15 -45 -12 -45 7 0
14 153 169 168 169 6 0 12 -2 12 -5z m-386 -17 c15 -48 16 -68 2 -68 -15 0
-39 57 -30 71 8 13 24 11 28 -3z m-292 -37 c17 -6 33 -24 42 -45 21 -49 46
-189 36 -200 -11 -12 -36 32 -44 77 -6 32 -10 37 -26 32 -16 -5 -25 6 -55 64
-19 39 -35 76 -35 82 0 12 35 8 82 -10z m708 9 c0 -11 -70 -80 -82 -80 -14 0
-9 12 25 50 31 37 57 51 57 30z m-449 -60 c22 -12 24 -26 7 -63 -16 -34 -33
-34 -55 1 -10 15 -26 33 -35 40 -10 7 -18 17 -18 23 0 12 76 12 101 -1z m343
-92 c-23 -39 -49 -68 -61 -68 -22 0 -15 46 10 63 27 20 61 22 51 5z m-424 -83
c0 -14 -5 -25 -10 -25 -11 0 -50 82 -50 103 1 24 60 -54 60 -78z m70 56 c13
-25 13 -68 0 -76 -6 -4 -17 9 -25 29 -22 51 0 93 25 47z m460 0 c0 -14 -79
-111 -90 -111 -13 0 -13 6 6 43 23 46 84 95 84 68z m148 -39 c-8 -9 -49 -59
-92 -110 -72 -86 -121 -131 -131 -121 -2 3 21 40 50 84 53 78 176 195 184 174
1 -6 -3 -18 -11 -27z m-257 -5 c-16 -16 -26 0 -10 19 9 11 15 12 17 4 2 -6 -1
-17 -7 -23z m-123 -39 c-9 -43 -31 -69 -36 -44 -4 19 25 86 36 86 6 0 6 -16 0
-42z m-508 -23 c8 -9 8 -15 2 -15 -18 0 -42 12 -42 21 0 14 26 10 40 -6z m581
-58 c-50 -88 -78 -101 -65 -31 8 46 69 113 86 96 7 -7 1 -26 -21 -65z m-381
11 c0 -10 -4 -18 -10 -18 -12 0 -30 33 -30 56 0 16 1 16 20 -1 11 -10 20 -26
20 -37z m94 4 c10 -37 -1 -56 -27 -46 -25 9 -24 87 0 82 10 -2 22 -18 27 -36z
m676 20 c0 -17 -60 -101 -79 -111 -28 -15 -31 -14 -31 12 0 14 17 37 47 64 48
42 63 50 63 35z m131 -19 c-15 -29 -61 -76 -144 -152 -110 -100 -128 -94 -45
16 61 80 223 196 189 136z m-1058 -15 c16 -13 65 -204 54 -215 -3 -3 -11 -2
-18 2 -14 9 -99 188 -99 210 0 18 39 20 63 3z m437 -21 c0 -27 -32 -89 -49
-95 -10 -3 -11 4 -6 29 15 71 55 118 55 66z m660 -16 c0 -14 -95 -111 -109
-111 -19 0 12 47 57 87 38 33 52 40 52 24z m-520 -39 c0 -32 -111 -162 -137
-162 -29 0 -9 36 54 101 62 65 83 80 83 61z m-325 -62 c22 -24 28 -137 8 -132
-18 3 -16 -13 2 -28 11 -9 15 -33 15 -86 0 -80 -10 -92 -46 -53 -26 29 -34
166 -10 175 14 5 14 9 1 34 -15 30 -20 91 -8 103 10 11 19 8 38 -13z m545 -23
c0 -14 -20 -37 -32 -37 -12 0 -10 24 4 38 16 16 28 15 28 -1z m-941 -76 c31
-60 60 -175 48 -188 -15 -15 -36 25 -66 126 -17 58 -31 111 -31 118 0 25 20 3
49 -56z m311 28 c0 -11 -4 -19 -9 -19 -10 0 -21 24 -21 47 0 13 3 13 15 3 8
-7 15 -21 15 -31z m316 -56 c-11 -45 -96 -111 -96 -74 0 23 23 71 35 71 7 0
18 7 25 15 22 26 43 19 36 -12z m-330 -38 c9 -25 14 -48 10 -52 -13 -13 -38
25 -43 67 -8 55 9 47 33 -15z m725 7 c-15 -28 -128 -132 -144 -132 -8 0 -29
-17 -45 -37 -35 -44 -49 -40 -29 8 17 40 60 82 141 138 64 44 93 53 77 23z
m-2391 -98 c0 -13 -4 -24 -10 -24 -5 0 -10 14 -10 31 0 17 4 28 10 24 6 -3 10
-17 10 -31z m1611 -121 c14 -25 2 -79 -16 -77 -14 1 -106 185 -105 208 1 13
104 -98 121 -131z m303 76 c-25 -42 -44 -49 -44 -15 0 32 37 73 52 58 7 -7 5
-21 -8 -43z m-534 -30 c0 -5 -4 -9 -8 -9 -15 0 -32 24 -32 45 1 19 1 19 20 -4
11 -13 20 -27 20 -32z m110 -5 c0 -14 -18 -29 -26 -21 -3 2 -7 22 -10 43 l-5
39 20 -24 c12 -13 21 -29 21 -37z m650 37 c0 -5 -6 -14 -14 -20 -8 -7 -12 -21
-9 -31 10 -38 -17 -77 -92 -129 -69 -48 -105 -62 -105 -42 0 17 79 109 110
127 16 10 28 23 26 29 -5 13 54 75 71 75 7 0 13 -4 13 -9z m350 -15 c0 -15
-250 -300 -314 -358 -41 -37 -66 -48 -66 -27 0 24 106 181 139 206 20 15 68
57 106 94 39 36 79 71 90 77 20 12 45 16 45 8z m-1175 -85 c9 -38 15 -78 13
-88 -8 -37 -38 32 -45 102 -8 88 9 80 32 -14z m695 62 c0 -18 -28 -53 -42 -53
-14 0 -9 38 8 54 20 21 34 20 34 -1z m270 6 c0 -12 -39 -70 -55 -81 -36 -26
-33 13 6 57 31 35 49 44 49 24z m-1062 -157 c60 -116 91 -191 117 -283 20 -68
41 -128 47 -134 11 -10 10 -1 -8 85 -10 46 10 36 51 -25 33 -51 36 -60 33
-117 -2 -40 -7 -62 -14 -61 -17 3 -11 -46 9 -84 21 -39 23 -132 3 -158 -13
-18 -15 -16 -42 26 -41 65 -101 208 -119 284 -28 123 -17 137 33 42 54 -100
76 -120 30 -27 -67 139 -134 301 -163 395 -14 48 -37 113 -51 143 -13 30 -24
58 -24 63 0 31 27 -10 98 -149z m486 126 c3 -17 4 -34 1 -37 -9 -8 -25 21 -25
47 0 33 17 27 24 -10z m-2014 -13 c0 -5 -5 -3 -10 5 -5 8 -10 20 -10 25 0 6 5
3 10 -5 5 -8 10 -19 10 -25z m2075 15 c3 -11 4 -28 2 -37 -3 -10 -8 -31 -11
-46 -4 -15 -11 -25 -15 -22 -12 7 -25 101 -16 115 10 17 33 11 40 -10z m-1765
-21 c0 -6 -4 -7 -10 -4 -5 3 -10 11 -10 16 0 6 5 7 10 4 6 -3 10 -11 10 -16z
m1445 -2 c19 -29 32 -117 17 -117 -11 0 -36 57 -47 108 -8 38 7 43 30 9z m103
-42 c18 -39 14 -50 -8 -30 -20 18 -28 55 -12 55 5 0 14 -11 20 -25z m-1764
-32 c13 -27 27 -63 31 -80 3 -18 11 -33 16 -33 5 0 8 3 8 8 -9 53 24 28 45
-35 19 -55 20 -73 5 -73 -15 0 -79 65 -79 80 0 5 -9 10 -19 10 -22 0 -36 35
-45 118 -8 66 6 68 38 5z m1635 -51 c52 -79 64 -127 41 -162 -22 -34 -81 81
-106 208 -11 52 10 37 65 -46z m268 41 c19 -28 26 -144 10 -160 -17 -16 -48
39 -46 78 2 21 0 41 -4 45 -9 9 -9 48 0 57 12 13 22 7 40 -20z m-1461 -38 c7
-19 14 -42 14 -52 -1 -27 -50 36 -50 65 0 33 19 27 36 -13z m1331 3 c22 -21
30 -59 17 -92 -10 -27 -24 -18 -44 30 -34 78 -21 108 27 62z m-1517 -35 c0
-24 -25 -9 -28 17 -3 21 -2 22 12 11 9 -7 16 -20 16 -28z m1840 24 c0 -19 -26
-52 -32 -41 -8 13 9 54 22 54 5 0 10 -6 10 -13z m-2170 -13 c0 -14 -3 -14 -15
-4 -8 7 -15 14 -15 16 0 2 7 4 15 4 8 0 15 -7 15 -16z m2325 -14 c3 -5 -8 -36
-24 -68 -23 -46 -42 -67 -81 -92 -31 -20 -55 -29 -60 -24 -6 6 -1 39 13 84
l23 75 49 17 c58 20 72 21 80 8z m-2046 -36 c21 -27 36 -83 29 -106 -3 -7 -19
9 -36 37 -47 74 -41 130 7 69z m1363 -21 c15 -18 98 -216 98 -235 0 -5 -5 -6
-10 -3 -14 9 -120 221 -120 240 0 20 13 19 32 -2z m1341 11 c3 -3 -1 -20 -10
-38 -12 -25 -66 -62 -280 -189 -145 -88 -267 -156 -270 -154 -3 3 13 27 35 54
31 36 67 62 146 102 57 30 162 94 233 142 133 91 136 93 146 83z m-2603 -18
c0 -3 -4 -8 -10 -11 -5 -3 -10 -1 -10 4 0 6 5 11 10 11 6 0 10 -2 10 -4z m174
-83 c35 -59 46 -88 46 -120 0 -63 -18 -54 -67 31 -34 57 -43 83 -43 119 0 26
4 47 10 47 5 0 30 -35 54 -77z m1426 -3 c0 -37 -19 -80 -36 -80 -8 0 -21 11
-30 25 -17 26 -13 79 8 119 10 19 12 19 34 -8 13 -15 24 -40 24 -56z m-1274
33 c-11 -11 -19 6 -11 24 8 17 8 17 12 0 3 -10 2 -21 -1 -24z m-659 0 c32 -21
29 -33 -7 -33 -36 0 -100 25 -100 39 0 5 -10 12 -22 14 -13 2 6 2 41 0 36 -3
75 -12 88 -20z m2333 18 c0 -15 -104 -165 -117 -169 -34 -10 20 117 65 155 28
24 52 30 52 14z m225 -15 c-17 -26 -44 -41 -54 -30 -7 7 45 54 60 54 5 0 2
-11 -6 -24z m-2326 -29 c34 -70 24 -85 -30 -46 -20 14 -29 29 -29 48 0 57 31
56 59 -2z m562 -55 c18 -52 15 -96 -5 -89 -15 5 -35 65 -35 110 -1 53 18 43
40 -21z m-461 22 c0 -31 -23 -28 -28 4 -2 15 2 22 12 22 11 0 16 -9 16 -26z
m545 1 c0 -10 -6 -20 -12 -22 -8 -3 -13 5 -13 22 0 17 5 25 13 23 6 -3 12 -13
12 -23z m905 -36 c0 -10 -7 -19 -15 -19 -20 0 -37 37 -29 62 l7 22 18 -23 c11
-13 19 -32 19 -42z m-2144 36 c18 -14 18 -14 -7 -15 -14 0 -34 7 -45 15 -18
14 -18 14 7 15 14 0 34 -7 45 -15z m1064 -9 c0 -7 -7 -19 -15 -26 -12 -10 -15
-9 -15 7 0 11 3 23 7 26 11 12 23 8 23 -7z m2179 2 c0 -7 -12 -38 -27 -68
l-27 -54 -115 -47 c-249 -102 -369 -153 -366 -156 5 -5 372 124 409 143 16 9
36 13 44 10 31 -12 -10 -46 -92 -75 -44 -16 -133 -52 -197 -80 -134 -58 -311
-121 -339 -121 -10 0 -19 4 -19 9 0 16 67 69 103 80 21 7 34 18 33 27 -1 11
42 38 129 83 72 36 200 110 285 163 155 97 181 109 179 86z m-3134 -8 c-3 -5
-12 -10 -20 -10 -8 0 -17 5 -20 10 -4 6 5 10 20 10 15 0 24 -4 20 -10z m4835
-10 c0 -24 -42 -70 -64 -70 -30 0 -28 22 5 56 37 39 59 44 59 14z m-2410 4 c0
-18 -65 -117 -86 -131 -37 -24 -45 -5 -22 53 14 37 28 55 51 67 34 17 57 21
57 11z m-2019 -23 c13 -11 21 -22 18 -26 -9 -9 -79 22 -79 34 0 18 36 13 61
-8z m2259 10 c0 -19 -101 -125 -160 -167 -33 -25 -60 -48 -60 -53 0 -5 -18 -9
-41 -9 -23 -1 -40 1 -38 3 2 2 40 41 84 87 91 94 215 174 215 139z m100 1 c0
-11 -86 -111 -115 -134 -22 -17 -55 -25 -55 -12 0 12 54 70 104 112 50 42 66
50 66 34z m-2180 -38 c0 -8 -7 -14 -15 -14 -15 0 -21 21 -9 33 10 9 24 -2 24
-19z m600 6 c0 -11 -2 -20 -5 -20 -2 0 -9 9 -15 20 -9 16 -8 20 5 20 8 0 15
-9 15 -20z m950 -27 c0 -8 -9 -26 -20 -40 -11 -14 -20 -34 -20 -45 0 -24 -28
-78 -40 -78 -16 0 -11 52 10 95 11 22 19 54 20 71 0 17 3 34 7 37 9 10 43 -23
43 -40z m-612 -215 c5 -63 -7 -75 -32 -35 -14 22 -67 237 -65 267 0 8 21 -28
47 -80 32 -68 47 -111 50 -152z m502 193 c0 -33 -14 -56 -29 -47 -12 8 -15 78
-4 89 12 12 33 -15 33 -42z m-1392 17 c20 -20 14 -40 -10 -36 -15 2 -24 11
-26 26 -4 24 16 30 36 10z m344 -15 c17 -15 25 -53 11 -53 -14 0 -43 34 -43
52 0 22 8 23 32 1z m-494 -41 c2 -8 -18 -12 -67 -12 -39 0 -71 4 -71 8 0 5 15
15 33 24 26 12 38 13 66 3 19 -6 37 -17 39 -23z m766 -3 c8 -40 8 -64 0 -56
-10 10 -22 87 -14 87 4 0 10 -14 14 -31z m-544 -1 c39 -42 15 -67 -28 -28 -12
11 -19 27 -16 35 8 21 20 19 44 -7z m1470 -18 c0 -43 -13 -52 -30 -20 -8 14
-8 26 0 40 17 32 30 23 30 -20z m-1400 9 c0 -6 -4 -7 -10 -4 -5 3 -10 11 -10
16 0 6 5 7 10 4 6 -3 10 -11 10 -16z m1650 13 c0 -11 -22 -32 -32 -32 -5 0 -4
9 2 20 11 20 30 28 30 12z m-1870 -37 c0 -15 -43 -12 -48 3 -3 10 4 13 22 10
15 -2 26 -7 26 -13z m370 -6 c13 -24 8 -34 -15 -26 -16 7 -21 47 -5 47 5 0 14
-9 20 -21z m180 0 c0 -6 -4 -7 -10 -4 -5 3 -10 11 -10 16 0 6 5 7 10 4 6 -3
10 -11 10 -16z m1206 6 c6 -16 -12 -45 -27 -45 -10 0 -12 44 -2 53 11 11 23 8
29 -8z m-2097 -14 c21 -13 -5 -24 -29 -11 -11 6 -20 13 -20 15 0 8 34 5 49 -4z
m1195 -7 c3 -9 3 -20 0 -25 -8 -13 -34 9 -34 27 0 19 26 18 34 -2z m-770 -26
c5 -9 8 -20 4 -23 -9 -10 -58 17 -58 32 0 20 40 13 54 -9z m356 -19 c0 -11 -4
-19 -9 -19 -10 0 -21 24 -21 47 0 13 3 13 15 3 8 -7 15 -21 15 -31z m333 29
c5 -16 -10 -48 -23 -48 -6 0 -10 14 -10 30 0 30 24 43 33 18z m832 -12 c13
-20 14 -32 5 -66 -13 -48 -33 -60 -60 -35 -24 21 -25 44 -6 90 17 41 39 45 61
11z m2416 -11 c-4 -40 -8 -45 -35 -45 -48 0 -61 41 -18 64 40 23 58 16 53 -19z
m-4186 15 c19 -7 18 -9 -8 -19 -16 -6 -35 -11 -43 -11 -24 0 -55 20 -49 31 7
11 72 11 100 -1z m1236 -85 c30 -44 107 -134 172 -200 79 -80 113 -121 102
-123 -55 -12 -345 326 -345 402 0 25 4 21 71 -79z m949 87 c0 -13 -79 -86 -86
-79 -9 9 55 87 72 87 8 0 14 -4 14 -8z m-1691 -39 c6 -21 11 -41 11 -45 0 -15
-27 -8 -45 12 -15 17 -16 24 -7 45 16 35 29 31 41 -12z m1121 7 c0 -28 -11
-51 -21 -44 -10 6 -12 57 -3 67 11 10 24 -3 24 -23z m-1435 8 c34 -15 32 -35
-5 -43 -59 -13 -95 20 -47 43 12 6 23 11 24 11 1 1 14 -4 28 -11z m630 -18
c17 -34 19 -50 5 -50 -8 0 -40 61 -40 76 0 15 22 -1 35 -26z m1822 -9 c-4 -17
-14 -47 -24 -68 l-18 -38 -187 -39 c-103 -22 -191 -36 -195 -33 -14 15 35 46
142 90 61 25 146 61 190 81 44 20 84 36 89 36 5 0 6 -13 3 -29z m-2080 -13
c27 -25 30 -50 8 -68 -23 -19 -45 5 -45 51 0 45 5 47 37 17z m423 3 c12 -23
13 -81 2 -81 -5 0 -19 11 -32 25 -20 21 -22 28 -12 50 14 30 28 32 42 6z
m-1000 -1 c0 -13 -45 -24 -66 -16 -8 3 -12 10 -9 16 8 13 75 13 75 0z m2050
-1 c0 -5 -17 -30 -37 -55 -26 -30 -50 -48 -77 -55 -50 -14 -61 -3 -47 47 10
37 13 40 73 55 81 20 88 21 88 8z m-377 -24 c-7 -21 -13 -19 -13 6 0 11 4 18
10 14 5 -3 7 -12 3 -20z m-1583 5 c0 -5 -9 -10 -21 -10 -11 0 -17 5 -14 10 3
6 13 10 21 10 8 0 14 -4 14 -10z m323 -38 c40 -17 57 -30 55 -41 -3 -13 -16
-16 -58 -14 -30 0 -58 -4 -61 -9 -15 -23 -329 -21 -329 2 0 22 65 33 168 28
100 -6 103 -5 48 6 -77 14 -82 31 -14 45 29 5 62 12 73 14 26 6 48 0 118 -31z
m3667 23 c0 -8 -4 -15 -10 -15 -5 0 -10 7 -10 15 0 8 5 15 10 15 6 0 10 -7 10
-15z m-3300 -15 c0 -5 -4 -10 -10 -10 -5 0 -10 5 -10 10 0 6 5 10 10 10 6 0
10 -4 10 -10z m300 0 c0 -5 -2 -10 -4 -10 -3 0 -8 5 -11 10 -3 6 -1 10 4 10 6
0 11 -4 11 -10z m143 -29 c9 -16 38 -55 63 -86 25 -31 44 -58 41 -61 -8 -8
-129 100 -138 123 -8 23 -3 53 10 53 4 0 14 -13 24 -29z m517 4 c23 -25 23
-25 5 -65 -10 -21 -26 -46 -35 -55 -16 -14 -19 -14 -34 9 -9 14 -16 31 -16 38
1 21 38 98 48 98 5 0 19 -11 32 -25z m-1745 -5 c9 -14 -42 -32 -79 -28 -40 4
-36 21 6 29 52 10 66 10 73 -1z m632 -15 c3 -9 3 -19 -1 -22 -8 -9 -37 18 -30
28 8 14 24 11 31 -6z m75 -22 c33 -35 47 -83 25 -83 -25 0 -77 50 -77 74 0 44
17 46 52 9z m-912 13 c0 -11 -19 -15 -25 -6 -3 5 1 10 9 10 9 0 16 -2 16 -4z
m988 -8 c19 -19 14 -30 -8 -18 -11 6 -20 15 -20 20 0 14 14 12 28 -2z m-294
-35 c44 -22 46 -38 5 -29 -17 3 -53 6 -80 6 -56 0 -64 15 -16 29 46 13 52 13
91 -6z m694 -21 c2 -18 -1 -32 -6 -32 -12 0 -22 24 -22 52 0 32 25 15 28 -20z
m717 -2 c-31 -34 -71 -21 -47 16 9 15 44 23 56 13 6 -5 2 -17 -9 -29z m705 25
c0 -9 -10 -19 -22 -24 -42 -15 -288 -61 -326 -61 -60 1 -75 -1 -109 -16 -68
-30 -218 -37 -181 -7 25 19 81 33 138 33 52 0 436 73 448 85 12 12 52 4 52
-10z m-1091 -66 c60 -69 74 -99 47 -99 -27 0 -116 123 -116 160 0 18 7 12 69
-61z m-898 7 c39 -27 79 -66 79 -75 0 -18 -49 -24 -144 -17 -159 12 -170 24
-66 66 35 14 65 31 68 38 4 14 35 8 63 -12z m184 -4 c5 -12 14 -22 19 -22 15
0 46 -32 46 -47 0 -11 -5 -11 -30 2 -16 9 -30 20 -30 25 0 6 -6 10 -14 10 -20
0 -39 27 -32 46 8 20 28 14 41 -14z m199 13 c8 -9 23 -40 32 -70 18 -55 38
-67 28 -16 -8 36 13 52 33 25 19 -27 14 -129 -7 -129 -9 0 -16 11 -18 28 -3
28 -22 38 -22 11 0 -9 -7 -14 -17 -12 -25 5 -63 85 -63 135 0 45 9 53 34 28z
m278 -29 c28 -24 84 -61 125 -82 41 -22 77 -42 79 -46 3 -5 -18 -8 -47 -8 -39
0 -68 8 -123 36 -88 44 -105 61 -113 107 -8 51 15 49 79 -7z m-902 30 c0 -9
-30 -14 -35 -6 -4 6 3 10 14 10 12 0 21 -2 21 -4z m-137 -23 c30 -18 -75 -33
-117 -17 -23 9 -20 22 7 27 23 5 96 -2 110 -10z m1447 -2 c0 -5 -6 -14 -14
-20 -16 -13 -32 2 -21 19 8 12 35 13 35 1z m-1652 -17 c48 -13 18 -24 -67 -24
-103 0 -150 11 -86 21 56 9 126 10 153 3z m212 -53 c0 -15 -60 -31 -116 -31
-62 0 -72 16 -16 25 20 4 42 8 47 10 22 7 85 4 85 -4z m1685 -2 c4 -6 -2 -13
-14 -16 -12 -3 -21 -9 -21 -13 0 -5 -27 -10 -60 -12 -33 -1 -60 0 -60 4 0 13
38 28 69 28 17 0 31 5 31 10 0 13 47 13 55 -1z m-1464 -28 l24 -9 -28 -7 c-31
-8 -163 -3 -172 7 -4 4 -4 12 0 19 9 13 134 6 176 -10z m289 9 c0 -5 -9 -10
-20 -10 -11 0 -20 5 -20 10 0 6 9 10 20 10 11 0 20 -4 20 -10z m441 -9 c7 -10
20 -16 29 -14 10 3 33 -3 51 -12 31 -16 32 -18 14 -31 -11 -8 -39 -13 -69 -11
l-51 2 -3 43 c-3 45 10 55 29 23z m-561 -19 c0 -4 -6 -14 -12 -21 -11 -11 -5
-12 32 -6 65 11 72 11 76 0 2 -6 -18 -20 -45 -33 -50 -23 -76 -28 -67 -14 2 4
-11 6 -30 4 -38 -5 -46 11 -14 28 11 6 18 16 14 22 -4 5 0 14 7 19 18 11 39
12 39 1z m-436 -38 c91 -23 92 -34 1 -34 -90 0 -155 9 -155 20 0 10 47 28 74
29 10 1 46 -6 80 -15z m664 -1 c2 -9 -8 -13 -32 -13 -34 0 -44 8 -29 24 11 11
56 2 61 -11z m-328 -13 c0 -13 -45 -24 -66 -16 -8 3 -12 10 -9 16 8 13 75 13
75 0z m-185 -60 c-3 -5 -24 -10 -46 -10 -21 0 -39 5 -39 10 0 6 21 10 46 10
27 0 43 -4 39 -10z m120 0 c-3 -5 -17 -10 -31 -10 -13 0 -24 5 -24 10 0 6 14
10 31 10 17 0 28 -4 24 -10z m1824 -339 c13 -8 13 -15 1 -51 -8 -23 -20 -44
-27 -47 -18 -7 -128 60 -128 77 0 22 126 39 154 21z m-135 -83 c52 -31 86 -58
86 -68 0 -31 -42 -140 -54 -140 -6 0 -64 47 -129 105 -122 111 -140 140 -89
148 80 12 99 8 186 -45z"/>
<path d="M11810 8281 c-101 -67 -199 -143 -140 -109 59 34 270 170 270 174 0
14 -37 -5 -130 -65z"/>
<path d="M11900 6070 c-31 -7 -29 -8 22 -9 31 0 60 4 63 9 7 11 -31 11 -85 0z"/>
<path d="M11753 6054 c3 -3 26 -6 52 -6 26 0 49 3 53 6 3 3 -21 6 -53 6 -32 0
-56 -3 -52 -6z"/>
<path d="M11878 5940 c115 -40 134 -45 98 -24 -29 16 -152 55 -171 53 -5 0 27
-13 73 -29z"/>
<path d="M11550 5916 c0 -9 218 -76 247 -76 45 0 14 16 -87 43 -113 31 -160
40 -160 33z"/>
<path d="M980 4046 c36 -37 74 -72 85 -78 27 -14 -38 54 -100 105 -47 38 -47
37 15 -27z"/>
<path d="M889 3969 c24 -11 46 -18 48 -15 4 4 -73 36 -85 35 -4 0 13 -9 37
-20z"/>
<path d="M930 3837 c18 -19 190 -91 197 -83 6 6 -143 77 -188 91 -21 6 -22 6
-9 -8z"/>
<path d="M860 3828 c19 -18 90 -61 90 -55 0 3 -24 20 -52 37 -29 18 -46 25
-38 18z"/>
</g>
</svg>
